<?xml version="1.0" standalone="no"?>
<svg xmlns="http://www.w3.org/2000/svg" viewBox="0 0 5680 3000">
<rect width="5680" height="3000" fill="#C5F92A"/>
<g transform="translate(0,3000) scale(0.1,-0.1)" fill="#393DF4" stroke="none">
<path d="M4850 28693 c-107 -11 -209 -25 -235 -33 -16 -5 -67 -21 -113 -35
-187 -58 -339 -152 -477 -296 -204 -213 -301 -401 -377 -734 l-23 -100 0
-6325 0 -6325 24 -80 c77 -262 231 -416 470 -472 72 -17 282 -18 4336 -18
4138 0 4262 1 4330 19 256 69 357 219 326 484 -16 139 -109 498 -414 1612
-125 457 -145 529 -162 595 -7 28 -25 91 -39 140 -15 50 -42 149 -61 220 -19
72 -48 180 -65 240 -17 61 -48 178 -70 260 -21 83 -66 254 -100 380 -60 229
-85 340 -117 530 -15 90 -17 275 -23 1920 -6 1678 -7 1825 -23 1885 -59 220
-167 342 -358 402 l-74 23 -1310 0 -1310 0 -80 -28 c-137 -48 -227 -123 -285
-237 -68 -134 -79 -272 -79 -965 1 -533 5 -619 43 -758 21 -77 59 -149 104
-199 75 -83 158 -118 386 -164 200 -41 272 -70 353 -146 59 -56 109 -147 132
-240 7 -29 11 -160 12 -345 1 -334 -2 -358 -68 -491 -48 -97 -144 -198 -225
-235 -129 -61 -123 -60 -748 -66 -316 -3 -773 -6 -1015 -5 -417 1 -445 2 -540
24 -142 31 -215 69 -305 160 -55 55 -85 95 -111 150 -51 105 -57 123 -74 230
-13 83 -15 448 -15 2917 0 3090 -4 2895 57 3088 36 115 78 187 148 259 96 95
215 150 381 175 50 8 764 11 2280 11 2136 1 2212 1 2303 20 231 47 352 158
413 377 21 77 22 92 23 798 1 396 -2 768 -7 828 -20 290 -146 461 -393 534
-57 17 -228 18 -3425 19 -1851 0 -3381 -1 -3400 -3z"/>
<path d="M13465 28685 c-209 -40 -338 -149 -399 -337 -40 -126 -39 12 -40
-5227 l-1 -5026 24 -85 c26 -90 91 -263 191 -505 132 -319 316 -768 405 -990
20 -49 45 -108 55 -130 9 -22 21 -51 25 -65 4 -14 18 -47 30 -75 12 -27 32
-75 43 -105 11 -30 64 -158 117 -285 54 -126 108 -259 122 -295 13 -35 33 -83
44 -107 10 -23 19 -45 19 -49 0 -4 15 -43 34 -88 19 -45 58 -139 86 -211 28
-71 64 -159 79 -195 16 -36 39 -90 51 -120 12 -30 31 -73 41 -95 32 -70 230
-550 264 -640 12 -33 43 -109 69 -168 25 -59 46 -110 46 -113 0 -14 177 -430
225 -529 108 -224 266 -361 475 -416 167 -43 296 -13 583 136 454 235 876 399
1357 527 198 53 635 137 845 163 22 3 121 12 220 22 272 25 993 23 1237 -3
194 -20 474 -58 548 -74 25 -5 88 -19 140 -30 515 -108 935 -250 1458 -493
219 -102 418 -209 682 -367 276 -166 349 -200 461 -215 88 -13 227 32 293 93
64 61 96 132 121 277 13 80 15 304 12 1955 l-3 1865 -23 80 c-64 225 -198 356
-411 400 -67 13 -429 15 -3285 15 -2102 0 -3231 4 -3272 10 -216 35 -380 145
-463 311 -81 160 -75 -10 -74 1954 0 1358 3 1763 13 1810 21 101 61 194 110
255 89 110 176 167 326 211 l80 24 720 2 c396 2 1791 5 3100 6 1656 3 2394 7
2425 15 104 25 126 32 188 63 79 40 176 143 203 214 41 108 42 131 41 955 -1
669 -3 806 -16 866 -52 244 -184 375 -430 425 -89 18 -195 19 -3177 22 -3451
3 -3151 -4 -3307 74 -132 66 -233 208 -267 375 -18 94 -22 746 -4 844 51 284
176 420 446 486 36 9 868 13 3353 18 l3305 6 65 21 c102 32 154 59 208 108 59
53 93 110 126 209 46 138 45 126 43 961 l-2 800 -28 90 c-61 195 -160 299
-347 362 -53 17 -216 18 -4795 20 -3900 1 -4752 -1 -4810 -12z"/>
<path d="M24860 28684 c-112 -19 -198 -62 -276 -139 -97 -96 -140 -207 -153
-400 -10 -137 -6 -13337 4 -13385 36 -186 78 -274 162 -349 64 -57 127 -91
218 -118 55 -16 130 -18 839 -21 858 -3 872 -2 997 57 128 60 218 168 261 311
l22 75 6 4500 5 4500 28 52 c31 60 60 83 115 90 58 8 105 -12 156 -65 81 -84
108 -132 320 -580 156 -328 395 -829 476 -997 40 -82 139 -289 220 -460 160
-335 214 -448 455 -945 87 -179 216 -449 287 -600 72 -151 190 -399 263 -550
73 -151 146 -304 163 -340 42 -91 243 -511 345 -720 514 -1064 786 -1628 939
-1950 226 -475 640 -1307 685 -1375 109 -166 251 -276 436 -338 l92 -31 1140
-4 c1184 -3 1353 1 1455 36 203 70 290 163 336 357 19 78 19 230 17 6485 -2
7095 4 6487 -66 6635 -64 133 -164 215 -312 257 l-80 23 -1164 3 c-1021 2
-1175 1 -1254 -13 -200 -35 -341 -146 -403 -318 -50 -138 -47 28 -53 -2982
l-6 -2800 -21 -40 c-30 -55 -56 -76 -101 -82 -53 -7 -107 22 -169 90 -50 55
-233 352 -590 957 -108 184 -362 612 -564 950 -202 338 -445 748 -540 910 -95
162 -264 448 -375 635 -111 187 -255 430 -320 540 -65 110 -191 322 -280 470
-89 149 -262 441 -385 650 -123 209 -267 454 -321 545 -169 287 -227 353 -371
420 -143 67 -80 64 -1378 66 -980 2 -1189 0 -1260 -12z"/>
<path d="M36315 28689 c-67 -10 -162 -41 -209 -70 -17 -10 -57 -45 -89 -76
-76 -75 -121 -167 -142 -292 -15 -87 -16 -807 -12 -8825 3 -6766 7 -8745 16
-8791 33 -160 144 -307 285 -375 45 -22 106 -45 136 -52 41 -9 237 -12 795
-13 693 0 744 1 810 19 125 33 251 104 333 187 61 62 175 245 272 439 45 91
86 170 90 175 4 6 40 71 78 145 122 235 651 1245 681 1300 4 8 43 83 86 165
43 83 142 272 220 420 78 149 175 333 215 410 157 303 194 373 230 440 21 39
84 160 140 270 57 110 106 205 110 210 8 11 178 336 325 620 48 94 91 175 95
180 4 6 30 53 57 105 28 52 66 124 85 160 20 36 56 103 80 150 24 47 72 137
105 200 33 63 131 253 217 422 86 170 193 374 237 455 45 82 97 177 116 213
34 63 133 229 163 274 8 12 32 47 52 78 39 59 144 177 205 231 154 136 352
213 608 237 55 5 771 12 1590 15 820 3 1513 8 1540 11 149 18 239 57 325 144
55 55 106 136 121 194 4 17 15 56 24 86 14 48 16 164 15 915 0 524 4 883 10
920 24 140 56 210 156 342 59 77 270 295 399 413 44 40 125 117 180 170 318
306 899 780 956 780 27 0 85 -75 874 -1120 143 -190 299 -397 347 -460 284
-373 389 -527 448 -653 81 -175 95 -295 99 -867 3 -527 8 -563 102 -702 63
-92 173 -164 304 -199 39 -10 255 -13 1000 -16 1055 -4 1031 -5 1170 62 92 44
165 117 210 209 66 136 67 145 69 891 2 845 -3 989 -39 1109 -14 50 -41 120
-59 158 -45 90 -193 292 -1344 1830 -308 412 -442 599 -442 617 0 3 88 51 196
106 312 158 660 403 844 595 216 225 351 395 467 588 80 133 168 302 203 392
12 30 28 69 35 85 77 172 167 547 205 855 18 147 24 493 11 670 -31 434 -137
860 -296 1185 -256 523 -685 971 -1180 1232 -460 242 -894 371 -1440 425 -187
19 -5805 19 -5912 0 -87 -15 -203 -67 -259 -116 -49 -42 -109 -128 -130 -188
-46 -127 -44 5 -44 -3373 l0 -3185 21 -44 c23 -50 54 -75 103 -83 78 -12 149
31 355 218 63 57 176 158 250 223 75 66 181 160 236 210 164 148 280 250 416
366 99 85 223 195 329 290 128 116 272 244 394 350 316 274 596 537 596 561 0
4 13 29 30 55 37 59 75 174 95 289 12 75 15 205 15 775 0 739 2 761 54 876 48
103 153 181 278 204 36 7 505 10 1359 8 l1304 -3 78 -22 c98 -28 202 -82 255
-133 132 -127 200 -316 187 -520 -9 -138 -20 -191 -60 -275 -44 -92 -95 -156
-169 -211 -118 -89 -206 -123 -612 -234 -304 -84 -453 -133 -739 -245 -617
-242 -1062 -490 -1580 -881 -448 -337 -727 -572 -1149 -963 -173 -160 -744
-731 -878 -876 -73 -79 -280 -307 -342 -376 -325 -359 -689 -741 -771 -807
-211 -172 -362 -241 -590 -271 -67 -9 -550 -11 -1910 -9 l-1820 3 -80 23
c-224 63 -341 176 -400 387 -14 49 -18 122 -22 393 -7 446 8 586 78 730 42 86
130 174 211 212 135 63 54 59 1502 60 726 1 1359 6 1406 11 260 27 389 110
466 299 55 135 55 142 51 1007 -3 784 -3 799 -25 876 -48 175 -154 285 -337
353 -48 18 -115 19 -1450 25 -1557 6 -1466 2 -1622 74 -96 44 -165 110 -208
199 -52 107 -65 170 -72 371 -16 486 85 693 384 782 53 16 177 18 1508 23
l1450 5 90 28 c113 35 185 78 240 142 57 67 91 137 115 237 19 79 20 120 20
823 0 417 -4 777 -10 825 -30 266 -165 432 -402 497 -59 16 -243 18 -2888 19
-1554 1 -2852 -2 -2885 -7z"/>
<path d="M43890 16659 c-134 -7 -155 -10 -240 -41 -138 -49 -279 -151 -370
-269 -57 -72 -141 -219 -285 -496 -46 -89 -122 -230 -168 -315 -46 -84 -111
-205 -144 -268 -198 -377 -375 -709 -508 -955 -84 -154 -210 -388 -280 -520
-118 -222 -360 -671 -417 -775 -47 -84 -185 -344 -248 -465 -34 -66 -66 -124
-70 -130 -4 -5 -36 -64 -70 -130 -35 -66 -99 -185 -143 -265 -44 -80 -96 -174
-115 -210 -19 -36 -51 -96 -72 -135 -20 -38 -99 -187 -175 -330 -76 -143 -162
-305 -193 -360 -98 -178 -278 -509 -304 -560 -23 -44 -98 -186 -228 -430 -24
-44 -98 -181 -165 -305 -167 -308 -247 -457 -365 -685 -90 -173 -133 -253
-225 -420 -102 -184 -276 -506 -358 -665 -128 -246 -303 -574 -622 -1165 -56
-104 -150 -280 -208 -390 -140 -267 -188 -358 -197 -370 -4 -5 -38 -68 -75
-140 -38 -71 -79 -147 -92 -167 -13 -21 -23 -41 -23 -44 0 -4 -29 -59 -64
-123 -35 -64 -88 -163 -118 -221 -53 -101 -139 -259 -327 -605 -48 -88 -124
-227 -169 -310 -44 -82 -97 -179 -117 -215 -19 -36 -47 -87 -61 -115 -13 -27
-29 -57 -34 -65 -11 -17 -210 -382 -278 -510 -25 -47 -67 -125 -94 -175 -28
-49 -75 -137 -105 -195 -31 -58 -59 -109 -63 -115 -8 -10 -45 -79 -143 -265
-30 -58 -71 -134 -91 -170 -88 -158 -216 -409 -216 -423 0 -8 -7 -32 -16 -53
-23 -54 -24 -230 -1 -302 40 -130 136 -239 262 -298 146 -69 -16 -65 2161 -61
1841 2 1972 4 2014 20 25 9 53 22 62 27 10 6 23 10 29 10 17 0 129 83 165 122
37 39 80 112 113 188 13 30 32 73 41 95 10 22 30 68 44 103 24 56 71 160 193
422 19 41 55 120 80 175 181 403 253 517 341 543 81 25 170 5 219 -49 50 -55
52 -85 57 -654 4 -588 3 -580 73 -724 68 -138 177 -225 333 -265 60 -16 266
-17 2805 -14 2610 3 2743 4 2800 22 205 61 331 192 392 407 17 61 18 345 18
7189 0 6740 -1 7129 -17 7200 -25 107 -63 176 -132 245 -71 70 -153 117 -263
148 l-78 22 -1665 0 c-916 0 -1721 -3 -1790 -6z m-560 -6585 c17 -15 37 -39
45 -55 23 -43 18 -192 -14 -504 -5 -49 -19 -184 -31 -300 -11 -115 -22 -228
-24 -250 -3 -22 -12 -114 -21 -205 -33 -338 -34 -342 -106 -385 -31 -19 -55
-20 -321 -23 -256 -3 -291 -1 -324 14 -108 51 -96 165 48 474 53 112 138 290
253 530 51 107 123 258 160 335 104 220 182 359 213 378 40 25 85 21 122 -9z"/>
<path d="M49250 16663 c-161 -9 -289 -62 -391 -163 -78 -76 -112 -139 -142
-258 l-21 -87 -4 -7030 c-2 -5031 0 -7054 8 -7115 24 -187 70 -298 168 -401
48 -52 82 -77 145 -107 154 -76 70 -72 1661 -72 1356 0 1425 1 1513 19 121 25
200 68 289 156 57 57 76 84 102 147 18 42 38 112 45 155 18 117 18 14186 -1
14288 -48 264 -167 392 -414 451 -67 16 -182 18 -1488 19 -778 1 -1440 0
-1470 -2z"/>
<path d="M32117 13894 c-122 -29 -240 -110 -292 -199 -14 -23 -37 -75 -52
-116 l-27 -74 -3 -860 c-2 -473 -4 -1872 -6 -3110 -3 -2284 -3 -2279 -38
-2366 -14 -35 -85 -79 -129 -79 -53 1 -110 31 -161 88 -25 27 -96 142 -159
254 -176 315 -329 588 -365 648 -18 30 -43 75 -55 100 -12 25 -44 83 -70 130
-122 216 -457 821 -588 1060 -79 146 -168 308 -197 360 -29 52 -143 262 -255
465 -194 355 -256 466 -435 785 -45 80 -124 222 -175 315 -152 276 -488 882
-550 990 -32 55 -74 132 -95 170 -115 211 -229 412 -267 467 -112 166 -252
271 -438 330 l-75 23 -1415 0 -1415 0 -70 -22 c-157 -50 -277 -171 -322 -326
-43 -147 -41 25 -40 -5637 l2 -5395 22 -68 c67 -207 206 -335 413 -381 68 -15
177 -17 1170 -13 1168 3 1109 1 1215 49 101 45 181 127 231 235 73 155 68 27
71 1733 2 844 3 2102 3 2795 0 1093 2 1267 15 1310 50 165 173 203 288 89 60
-59 125 -165 282 -459 24 -44 76 -141 115 -215 40 -74 93 -173 118 -220 25
-47 95 -177 157 -290 62 -113 126 -230 142 -260 16 -30 53 -97 81 -148 29 -50
52 -94 52 -96 0 -3 15 -31 33 -63 19 -32 61 -110 94 -173 107 -205 223 -421
328 -610 172 -312 418 -769 533 -990 68 -132 105 -200 188 -345 15 -27 38 -69
50 -92 12 -22 64 -117 114 -210 51 -92 107 -195 125 -228 57 -107 444 -823
572 -1060 149 -276 235 -406 328 -501 113 -114 230 -183 385 -227 75 -22 82
-22 1395 -25 851 -2 1354 1 1415 7 172 19 271 62 369 160 64 65 92 117 123
227 l22 79 2 5720 c1 3346 -2 5749 -7 5790 -35 274 -166 431 -399 481 -97 20
-2268 19 -2353 -2z"/>
<path d="M4125 13270 c-215 -15 -376 -119 -455 -295 -57 -125 -55 -89 -55
-1155 l0 -985 28 -82 c67 -198 193 -307 417 -360 56 -14 183 -16 876 -19 885
-2 870 -1 994 -61 69 -33 166 -131 203 -205 40 -81 67 -199 73 -318 2 -58 6
-1849 8 -3980 3 -3632 5 -3880 21 -3950 38 -165 145 -308 277 -370 129 -61
117 -60 1268 -60 1163 0 1144 -1 1288 65 125 58 205 156 248 305 18 63 19 190
24 4065 5 3788 6 4003 23 4065 23 82 77 194 118 243 78 94 212 167 345 187 45
7 622 12 1669 14 1723 4 1655 2 1795 55 117 44 227 154 270 268 41 110 42 118
42 1123 0 1063 1 1026 -57 1154 -68 149 -179 239 -347 282 -58 15 -448 16
-4523 18 -2453 1 -4500 -1 -4550 -4z"/>
<path d="M18810 12687 c-3 -2 -88 -10 -190 -16 -197 -13 -512 -60 -740 -111
-702 -158 -1238 -406 -1825 -844 -167 -125 -231 -181 -391 -341 -268 -269
-454 -500 -619 -766 -5 -9 -22 -35 -37 -57 -149 -223 -378 -695 -468 -962 -18
-52 -36 -104 -40 -115 -13 -33 -68 -204 -96 -300 -78 -270 -129 -500 -169
-760 -14 -88 -29 -185 -35 -215 -5 -30 -16 -124 -25 -208 -60 -585 -70 -1185
-29 -1712 24 -317 96 -824 138 -985 8 -27 21 -86 31 -130 9 -44 28 -120 41
-170 13 -49 26 -101 30 -115 12 -50 85 -286 99 -320 7 -19 23 -62 35 -95 12
-33 26 -69 30 -80 5 -11 27 -65 48 -120 145 -365 331 -724 534 -1027 48 -72
258 -350 278 -368 3 -3 49 -55 102 -115 312 -358 748 -699 1207 -944 379 -203
818 -357 1256 -441 33 -6 79 -16 102 -21 61 -13 216 -36 373 -54 25 -3 63 -7
85 -10 191 -22 766 -25 975 -6 184 18 515 66 675 100 483 100 1031 321 1407
567 54 35 100 64 103 64 11 0 236 163 370 270 214 169 575 542 715 738 25 35
59 82 76 105 148 203 247 366 383 632 100 195 131 263 196 430 26 66 57 145
70 175 12 30 30 80 40 110 10 30 26 78 36 105 113 316 242 885 285 1260 2 22
11 94 19 160 70 585 74 1228 10 1810 -7 72 -16 150 -19 175 -8 75 -45 342 -55
395 -50 268 -70 364 -108 515 -25 96 -49 191 -53 210 -37 151 -130 428 -200
600 -10 25 -30 77 -45 115 -32 84 -194 414 -265 540 -28 50 -56 101 -62 115
-7 14 -29 50 -49 80 -20 30 -62 96 -95 145 -255 393 -613 772 -1009 1072 -433
326 -965 590 -1469 728 -365 100 -546 134 -911 171 -145 14 -735 32 -745 21z
m505 -2988 c215 -29 428 -111 625 -241 187 -122 353 -294 477 -493 43 -69 64
-111 124 -240 55 -120 126 -342 183 -572 105 -424 141 -1216 81 -1793 -8 -82
-26 -216 -30 -230 -3 -8 -11 -60 -20 -115 -8 -55 -19 -118 -24 -140 -6 -22
-15 -62 -21 -90 -44 -190 -157 -515 -210 -605 -95 -160 -168 -270 -187 -283
-7 -4 -13 -13 -13 -19 0 -24 -156 -193 -260 -281 -144 -123 -332 -222 -560
-295 -190 -61 -573 -66 -821 -12 -331 73 -604 240 -837 513 -209 244 -370 571
-452 917 -5 19 -15 63 -24 97 -30 122 -81 443 -91 578 -21 299 -26 399 -25
610 1 266 1 278 24 520 46 487 119 810 261 1150 127 304 321 562 547 728 153
111 320 197 463 237 44 12 91 26 105 31 29 9 228 37 310 43 77 5 291 -3 375
-15z"/>
<path d="M10875 9710 c-146 -25 -262 -106 -340 -235 -66 -111 -76 -160 -86
-445 -6 -149 -8 -1673 -7 -3670 l3 -3415 23 -84 c29 -110 81 -205 144 -270 63
-63 111 -92 214 -128 l79 -28 1055 -3 c772 -3 1079 0 1145 8 259 34 416 167
481 405 14 55 16 367 15 3710 -1 2008 -4 3666 -7 3685 -3 19 -15 64 -26 100
-60 189 -158 286 -353 351 l-70 24 -1110 1 c-610 1 -1132 -2 -1160 -6z"/>
</g></svg>
