<svg xmlns="http://www.w3.org/2000/svg" xmlns:xlink="http://www.w3.org/1999/xlink" width="3000" zoomAndPan="magnify" viewBox="0 0 2250 2250.000011" height="3000" preserveAspectRatio="xMidYMid meet" version="1.0"><defs><clipPath id="a85b05f31b"><path d="M 0.5 0 L 2249.5 0 L 2249.5 2249 L 0.5 2249 Z M 0.5 0 " clip-rule="nonzero"/></clipPath><clipPath id="75a87debbf"><path d="M 1874 1651 L 1876 1651 L 1876 1652.207031 L 1874 1652.207031 Z M 1874 1651 " clip-rule="nonzero"/></clipPath></defs><g clip-path="url(#a85b05f31b)"><path fill="#ffffff" d="M 0.5 0 L 2249.5 0 L 2249.5 2249 L 0.5 2249 Z M 0.5 0 " fill-opacity="1" fill-rule="nonzero"/><path fill="#ffffff" d="M 0.5 0 L 2249.5 0 L 2249.5 2249 L 0.5 2249 Z M 0.5 0 " fill-opacity="1" fill-rule="nonzero"/></g><path fill="#000000" d="M 297.882812 640.496094 C 297.8125 640.566406 295.53125 640.707031 292.828125 640.847656 C 287.5625 641.058594 286.085938 641.265625 281.488281 642.460938 C 272.535156 644.777344 263.371094 650.78125 257.539062 658.085938 C 256.066406 659.945312 252.625 665.386719 252.625 665.878906 C 252.625 665.984375 252.378906 666.546875 252.097656 667.144531 C 250.730469 670.128906 248.867188 675.640625 248.097656 678.976562 C 246.867188 684.277344 246.867188 684.417969 246.902344 905.957031 C 246.902344 1110.679688 246.9375 1123.847656 247.5 1127.148438 C 249.675781 1139.679688 255.222656 1146.597656 265.089844 1149.195312 C 270.742188 1150.667969 269.023438 1150.667969 422.390625 1150.667969 C 563.5 1150.667969 568.875 1150.632812 571.085938 1150.039062 C 577.511719 1148.210938 581.304688 1144.769531 583.09375 1139.152344 C 584.078125 1136.132812 584.078125 1130.0625 583.09375 1125.742188 C 582.460938 1122.863281 578.597656 1108.503906 575.472656 1097.304688 C 574.773438 1094.777344 573.894531 1091.722656 573.542969 1090.457031 C 571.542969 1083.15625 570.804688 1080.519531 569.121094 1074.484375 C 568.066406 1070.796875 566.976562 1066.863281 566.660156 1065.707031 C 566.34375 1064.546875 565.855469 1062.894531 565.574219 1062.019531 C 565.292969 1061.140625 564.941406 1059.808594 564.765625 1059.035156 C 564.625 1058.261719 564.0625 1056.296875 563.570312 1054.644531 C 563.082031 1052.996094 562.308594 1050.152344 561.816406 1048.324219 C 561.359375 1046.5 560.445312 1043.164062 559.851562 1040.953125 C 559.253906 1038.742188 558.621094 1036.355469 558.445312 1035.6875 C 558.304688 1035.019531 557.742188 1033.019531 557.25 1031.296875 C 555.8125 1026.277344 555.671875 1025.855469 554.792969 1022.34375 C 553.988281 1019.253906 552.476562 1013.742188 551.773438 1011.285156 C 550.582031 1007.144531 549.878906 1004.367188 549.105469 1000.402344 C 548.613281 997.875 547.945312 994.820312 547.667969 993.554688 C 547.070312 991.132812 547.070312 989.378906 546.753906 890.332031 L 546.648438 856.453125 L 545.839844 854.523438 C 545.417969 853.46875 544.890625 852.0625 544.71875 851.433594 C 544.296875 850.097656 540.292969 845.675781 538.363281 844.480469 C 537.625 844.023438 535.832031 843.25 534.394531 842.761719 L 531.726562 841.847656 L 486.1875 841.8125 C 443 841.777344 436.152344 841.882812 435.695312 842.621094 C 435.589844 842.796875 435.308594 842.9375 435.027344 842.9375 C 433.90625 842.9375 429.796875 845.253906 428.21875 846.761719 C 426.144531 848.765625 424.707031 851.082031 423.582031 854.347656 L 422.738281 856.804688 L 422.773438 881.207031 C 422.773438 904.414062 422.949219 910.730469 423.582031 911.574219 C 423.722656 911.75 424.039062 912.769531 424.285156 913.820312 C 425.96875 920.703125 431.796875 924.496094 442.402344 925.617188 C 450.335938 926.460938 456.132812 931.304688 457.113281 937.90625 C 457.570312 940.890625 457.710938 955.566406 457.324219 959.851562 C 457.148438 962.0625 456.726562 964.660156 456.445312 965.609375 C 454.410156 972.277344 447.738281 977.195312 439.769531 977.929688 C 436.152344 978.28125 368.246094 978.140625 366.5625 977.792969 C 362.136719 976.878906 359.1875 975.332031 356.203125 972.382812 C 353.324219 969.46875 351.535156 965.855469 350.410156 960.445312 L 349.53125 956.410156 L 349.566406 856.734375 C 349.566406 794.484375 349.671875 755.96875 349.882812 754.109375 C 350.621094 747.929688 351.710938 744.523438 354.273438 740.59375 C 357.433594 735.746094 361.328125 733.394531 368.949219 731.675781 C 370.144531 731.394531 393.914062 731.289062 449.460938 731.289062 C 527.898438 731.289062 528.285156 731.289062 531.65625 730.550781 C 535.449219 729.742188 537.027344 729.007812 539.941406 726.792969 C 543.59375 724.019531 545.734375 719.808594 546.507812 713.910156 C 546.753906 712.046875 546.859375 701.691406 546.789062 683.714844 C 546.683594 656.75 546.648438 656.292969 545.910156 654.1875 C 544.191406 649.273438 542.046875 646.359375 538.433594 643.902344 C 535.796875 642.179688 532.8125 641.164062 528.847656 640.742188 C 526.074219 640.425781 298.199219 640.214844 297.882812 640.496094 Z M 297.882812 640.496094 " fill-opacity="1" fill-rule="nonzero"/><path fill="#000000" d="M 597.417969 640.707031 C 587.378906 641.582031 580.882812 647.9375 579.6875 658.085938 C 579.546875 659.242188 579.441406 739.328125 579.441406 836.054688 C 579.476562 996.082031 579.546875 1012.199219 580.039062 1014.9375 C 580.707031 1018.378906 583.585938 1027.332031 585.128906 1030.664062 C 585.726562 1031.929688 586.183594 1033.019531 586.183594 1033.125 C 586.183594 1033.230469 586.429688 1033.824219 586.710938 1034.492188 C 586.992188 1035.160156 587.484375 1036.214844 587.761719 1036.878906 C 588.042969 1037.511719 590.011719 1042.53125 592.152344 1048.011719 C 594.292969 1053.488281 596.472656 1059 597.03125 1060.261719 C 597.59375 1061.527344 598.367188 1063.246094 598.753906 1064.125 C 599.140625 1065.003906 599.945312 1066.96875 600.578125 1068.515625 C 601.175781 1070.058594 601.914062 1071.777344 602.160156 1072.375 C 602.441406 1072.9375 605.109375 1079.503906 608.09375 1086.945312 C 611.078125 1094.390625 614.167969 1102.042969 614.976562 1103.972656 C 615.78125 1105.90625 616.871094 1108.679688 617.433594 1110.117188 C 617.960938 1111.558594 618.800781 1113.628906 619.292969 1114.683594 C 620.277344 1116.789062 624.769531 1127.636719 626.035156 1131.007812 C 627.089844 1133.746094 628.984375 1138.453125 630.355469 1141.542969 C 631.898438 1145.121094 634.074219 1150.390625 634.917969 1152.601562 C 635.515625 1154.214844 638.394531 1161.203125 640.078125 1165.066406 C 640.324219 1165.625 641.203125 1167.769531 642.011719 1169.804688 C 642.851562 1171.839844 644.046875 1174.578125 644.644531 1175.949219 C 645.277344 1177.28125 645.90625 1178.792969 646.046875 1179.285156 C 646.433594 1180.511719 650.191406 1188.203125 651.457031 1190.34375 C 652.859375 1192.730469 656.160156 1196.136719 658.582031 1197.679688 C 661.179688 1199.332031 663.570312 1200.246094 666.449219 1200.699219 C 671.257812 1201.472656 674.488281 1201.085938 678.808594 1199.226562 C 681.722656 1197.996094 689.410156 1194.382812 696.433594 1190.941406 C 708.511719 1185.078125 720.941406 1180.371094 734.179688 1176.617188 C 739.480469 1175.105469 751.699219 1172.332031 753.980469 1172.085938 C 755.316406 1171.945312 759.140625 1171.347656 761.917969 1170.859375 C 763.777344 1170.542969 767.113281 1170.121094 769.113281 1169.980469 C 769.78125 1169.945312 771.921875 1169.734375 773.855469 1169.523438 C 780.488281 1168.820312 783.265625 1168.714844 794.886719 1168.714844 C 806.4375 1168.714844 810.546875 1168.960938 821.605469 1170.367188 C 826.066406 1170.929688 837.160156 1172.964844 840.390625 1173.84375 C 841.445312 1174.121094 845.164062 1175.070312 848.640625 1175.914062 C 858.4375 1178.335938 873.113281 1183.496094 882.453125 1187.746094 C 883.648438 1188.308594 884.734375 1188.761719 884.804688 1188.761719 C 885.015625 1188.761719 888.878906 1190.554688 893.234375 1192.660156 C 896.570312 1194.277344 900.5 1196.382812 903.273438 1198.066406 C 904.363281 1198.734375 905.347656 1199.296875 905.453125 1199.296875 C 905.734375 1199.296875 913.5625 1204.035156 915.527344 1205.40625 C 916.40625 1206.003906 917.355469 1206.632812 917.671875 1206.84375 C 917.988281 1207.019531 919.320312 1207.933594 920.65625 1208.8125 C 925.675781 1212.179688 928.730469 1213.339844 932.699219 1213.339844 C 935.578125 1213.339844 937.085938 1212.953125 939.265625 1211.585938 C 943.160156 1209.160156 946.039062 1203.578125 947.199219 1196.136719 C 947.585938 1193.714844 947.65625 1071.953125 947.269531 1066.757812 C 946.917969 1061.949219 944.988281 1056.789062 942.355469 1053.734375 C 939.441406 1050.292969 935.648438 1048.429688 930.101562 1047.660156 C 928.238281 1047.378906 892.671875 1047.273438 815.882812 1047.273438 C 695.308594 1047.273438 700.542969 1047.34375 695.835938 1045.410156 C 690.992188 1043.445312 686.214844 1039.234375 684.25 1035.265625 C 683.617188 1034.035156 682.808594 1031.789062 682.390625 1030.351562 C 681.652344 1027.679688 681.652344 1027.261719 681.582031 965.925781 C 681.511719 899.355469 681.40625 903.429688 683.335938 897.777344 C 685.269531 892.230469 689.972656 887.875 696.75 885.488281 C 698.222656 884.960938 707.386719 884.890625 805.980469 884.820312 C 865.179688 884.785156 915.246094 884.679688 917.285156 884.609375 C 923.992188 884.292969 929.503906 881.519531 932.699219 876.851562 C 933.820312 875.238281 935.683594 870.214844 936 868.039062 C 936.351562 865.617188 936.28125 814.496094 935.929688 811.652344 C 935.015625 804.738281 931.609375 799.433594 926.414062 797.046875 C 920.726562 794.414062 932.488281 794.695312 808.789062 794.484375 L 697.664062 794.308594 L 694.714844 793.292969 C 688.464844 791.113281 684.707031 787.324219 682.285156 780.828125 C 681.617188 778.964844 681.546875 778.054688 681.476562 764.289062 C 681.371094 748.246094 681.511719 746.769531 683.441406 742.59375 C 684.460938 740.453125 686.179688 737.921875 687.304688 736.976562 C 688.113281 736.308594 691.238281 734.308594 692.21875 733.851562 C 692.710938 733.640625 694.046875 733.007812 695.203125 732.445312 L 697.3125 731.464844 L 717.851562 731.359375 C 729.15625 731.324219 782 731.253906 835.300781 731.183594 C 931.46875 731.078125 932.242188 731.078125 934.523438 730.375 C 937.367188 729.496094 940.597656 727.566406 942.527344 725.566406 C 944.425781 723.667969 946.988281 718.472656 947.621094 715.3125 C 948.289062 712.082031 948.183594 661.492188 947.515625 657.03125 C 946.390625 649.449219 940.5625 642.882812 933.609375 641.335938 C 932.839844 641.164062 931.574219 640.882812 930.800781 640.707031 C 929.1875 640.355469 601.5625 640.355469 597.417969 640.707031 Z M 597.417969 640.707031 " fill-opacity="1" fill-rule="nonzero"/><path fill="#000000" d="M 1000.148438 640.671875 C 990.527344 641.40625 984.347656 646.394531 981.996094 655.3125 C 981.398438 657.628906 981.363281 666.898438 981.363281 875.9375 C 981.363281 995.941406 981.433594 1103.0625 981.574219 1113.980469 C 981.785156 1133.253906 981.785156 1133.886719 982.554688 1136.449219 C 984.769531 1143.753906 988.839844 1147.859375 995.933594 1149.898438 C 998.53125 1150.632812 998.988281 1150.632812 1026.128906 1150.667969 L 1053.691406 1150.667969 L 1056.675781 1149.863281 C 1060.574219 1148.808594 1063.066406 1147.371094 1065.453125 1144.910156 C 1067.773438 1142.488281 1069.386719 1139.398438 1070.441406 1135.574219 C 1071.070312 1133.113281 1071.210938 1131.570312 1071.316406 1123.636719 C 1071.386719 1118.613281 1071.492188 1047.34375 1071.527344 965.292969 L 1071.597656 816.078125 L 1072.617188 814.566406 C 1074.371094 812.003906 1076.515625 811.40625 1078.796875 812.777344 C 1080.132812 813.621094 1080.304688 813.832031 1082.132812 816.5 C 1083.1875 818.007812 1094.949219 841.179688 1094.949219 841.671875 C 1094.949219 841.742188 1097.054688 846.132812 1099.652344 851.433594 C 1102.214844 856.699219 1104.671875 861.789062 1105.128906 862.773438 C 1106.851562 866.566406 1109.238281 871.585938 1113.558594 880.328125 C 1118.753906 890.859375 1125.847656 905.429688 1125.847656 905.640625 C 1125.847656 905.710938 1127.671875 909.503906 1129.882812 914.066406 C 1132.097656 918.632812 1133.921875 922.386719 1133.921875 922.457031 C 1133.921875 922.527344 1136.449219 927.761719 1139.574219 934.113281 C 1142.699219 940.433594 1145.71875 946.648438 1146.28125 947.914062 C 1146.878906 949.175781 1148.738281 953.109375 1150.460938 956.65625 C 1152.179688 960.203125 1153.582031 963.1875 1153.582031 963.257812 C 1153.582031 963.359375 1155.972656 968.277344 1158.886719 974.175781 C 1163.695312 983.863281 1166.292969 989.238281 1169.453125 996.011719 C 1170.050781 997.277344 1171.632812 1000.542969 1172.929688 1003.316406 C 1174.265625 1006.054688 1175.351562 1008.40625 1175.351562 1008.476562 C 1175.351562 1008.582031 1176.898438 1011.777344 1178.828125 1015.640625 C 1180.726562 1019.5 1182.445312 1023.082031 1182.691406 1023.644531 C 1182.902344 1024.171875 1183.21875 1024.871094 1183.429688 1025.152344 C 1183.78125 1025.679688 1189.398438 1037.40625 1189.398438 1037.617188 C 1189.398438 1037.6875 1190.835938 1040.671875 1192.558594 1044.289062 C 1194.3125 1047.90625 1195.71875 1050.890625 1195.71875 1050.960938 C 1195.71875 1051.03125 1200.527344 1060.929688 1207.128906 1074.484375 C 1208.707031 1077.746094 1210.640625 1081.714844 1211.34375 1083.261719 C 1216.996094 1095.371094 1222.226562 1105.90625 1225.28125 1111.242188 C 1227.457031 1115 1231.179688 1119.492188 1234.164062 1121.84375 C 1238.203125 1125.074219 1242.660156 1126.902344 1249.261719 1128.023438 C 1252.84375 1128.621094 1255.722656 1128.65625 1290.203125 1128.691406 C 1326.050781 1128.726562 1332.617188 1128.585938 1335.988281 1127.636719 C 1340.304688 1126.410156 1344.167969 1124.265625 1346.414062 1121.808594 C 1348.242188 1119.773438 1350.101562 1116.261719 1350.804688 1113.453125 C 1351.402344 1111.101562 1351.4375 1101.058594 1351.332031 885.066406 C 1351.261719 756.25 1351.050781 658.121094 1350.875 656.785156 C 1350.101562 650.957031 1346.519531 645.445312 1342.027344 643.128906 C 1339.921875 642.039062 1336.515625 641.09375 1333.636719 640.777344 C 1332.160156 640.636719 1312.5 640.53125 1289.957031 640.566406 C 1245.433594 640.601562 1247.753906 640.496094 1243.082031 642.496094 C 1240.90625 643.445312 1240.871094 643.445312 1238.34375 645.761719 C 1235.289062 648.535156 1233.320312 652.679688 1232.585938 657.839844 C 1232.339844 659.523438 1232.234375 693.441406 1232.199219 756.847656 C 1232.199219 815.761719 1232.058594 854.101562 1231.847656 855.398438 C 1231.25 859.261719 1228.300781 860.839844 1224.929688 859.121094 C 1224.191406 858.734375 1223.070312 857.925781 1222.4375 857.261719 C 1221.207031 856.03125 1214.746094 845.324219 1205.164062 828.75 C 1203.40625 825.695312 1200.351562 820.5 1198.386719 817.164062 C 1196.417969 813.867188 1193.15625 808.316406 1191.152344 804.84375 C 1189.152344 801.367188 1184.902344 794.167969 1181.742188 788.867188 C 1178.546875 783.566406 1174.757812 777.070312 1173.246094 774.472656 C 1171.738281 771.875 1169.347656 767.765625 1167.910156 765.34375 C 1166.46875 762.921875 1163.90625 758.566406 1162.1875 755.6875 C 1160.5 752.773438 1157.972656 748.527344 1156.605469 746.210938 C 1155.234375 743.890625 1153.96875 741.714844 1153.757812 741.398438 C 1153.410156 740.769531 1142.066406 721.5625 1136.378906 711.976562 C 1130.234375 701.65625 1125.144531 693.054688 1121.632812 687.050781 C 1119.632812 683.679688 1116.789062 678.835938 1115.3125 676.34375 C 1113.800781 673.8125 1110.714844 668.617188 1108.464844 664.753906 C 1106.183594 660.894531 1103.65625 656.609375 1102.8125 655.242188 C 1098.074219 647.480469 1093.191406 643.515625 1085.820312 641.371094 L 1083.1875 640.601562 L 1043.160156 640.53125 C 1021.144531 640.496094 1001.796875 640.566406 1000.148438 640.671875 Z M 1000.148438 640.671875 " fill-opacity="1" fill-rule="nonzero"/><path fill="#000000" d="M 1401.925781 640.707031 C 1395.152344 641.40625 1389.496094 645.09375 1386.792969 650.640625 C 1385.601562 653.027344 1385.074219 654.820312 1384.582031 658.261719 C 1384.335938 659.734375 1384.300781 739.222656 1384.40625 882.433594 C 1384.511719 1004.472656 1384.617188 1142.3125 1384.617188 1188.761719 C 1384.652344 1243.675781 1384.757812 1273.761719 1385.003906 1274.78125 C 1385.179688 1275.660156 1385.496094 1277.132812 1385.707031 1278.046875 C 1386.40625 1281.417969 1388.304688 1284.859375 1390.832031 1287.386719 C 1393.5 1290.054688 1395.746094 1291.246094 1399.714844 1292.195312 C 1402.066406 1292.757812 1404.945312 1292.828125 1426.503906 1292.933594 C 1449.503906 1293.039062 1450.800781 1293.039062 1454.277344 1292.371094 C 1460.5625 1291.140625 1464.496094 1289.246094 1468.5 1285.488281 C 1470.710938 1283.417969 1475.203125 1277.730469 1475.203125 1277.027344 C 1475.203125 1276.921875 1475.484375 1276.398438 1475.871094 1275.90625 C 1476.222656 1275.378906 1478.046875 1272.007812 1479.910156 1268.355469 C 1483.5625 1261.195312 1485.527344 1257.542969 1486.40625 1256.171875 C 1486.722656 1255.683594 1487.351562 1254.59375 1487.773438 1253.714844 C 1488.230469 1252.839844 1488.722656 1251.890625 1488.898438 1251.609375 C 1489.074219 1251.328125 1489.742188 1249.960938 1490.40625 1248.625 C 1491.8125 1245.816406 1495.007812 1239.636719 1497.640625 1234.757812 C 1498.625 1232.929688 1499.992188 1230.296875 1500.695312 1228.964844 C 1501.855469 1226.578125 1502.207031 1225.980469 1502.941406 1224.644531 C 1503.152344 1224.328125 1503.363281 1223.835938 1503.46875 1223.59375 C 1503.925781 1222.503906 1504.066406 1222.1875 1504.910156 1220.714844 C 1505.75 1219.238281 1508.28125 1214.464844 1511.964844 1207.371094 C 1513.828125 1203.71875 1517.058594 1197.609375 1517.582031 1196.664062 C 1517.792969 1196.277344 1518.390625 1195.152344 1518.847656 1194.171875 C 1519.339844 1193.222656 1520.078125 1191.78125 1520.535156 1191.011719 C 1521.304688 1189.640625 1522.21875 1187.921875 1526.644531 1179.460938 C 1527.941406 1176.933594 1529.136719 1174.71875 1529.277344 1174.542969 C 1529.453125 1174.332031 1530.292969 1172.753906 1531.207031 1171.035156 C 1534.121094 1165.449219 1537.210938 1159.515625 1538.933594 1156.289062 C 1540.722656 1152.917969 1541.917969 1150.632812 1546.304688 1142.242188 C 1549.640625 1135.855469 1551.253906 1132.765625 1554.449219 1126.796875 C 1555.785156 1124.265625 1558.382812 1119.386719 1560.175781 1115.910156 C 1561.964844 1112.4375 1563.71875 1109.207031 1564.035156 1108.714844 C 1564.351562 1108.222656 1565.441406 1106.222656 1566.460938 1104.21875 C 1567.441406 1102.21875 1568.636719 1100.007812 1569.09375 1099.304688 C 1569.515625 1098.601562 1570.882812 1095.933594 1572.113281 1093.441406 C 1573.339844 1090.914062 1575.238281 1087.296875 1576.324219 1085.367188 C 1577.414062 1083.433594 1579.238281 1080.03125 1580.363281 1077.816406 C 1581.488281 1075.605469 1582.855469 1072.972656 1583.382812 1072.023438 C 1583.945312 1071.042969 1585.101562 1068.828125 1586.015625 1067.109375 C 1586.894531 1065.355469 1587.738281 1063.773438 1587.878906 1063.597656 C 1588.015625 1063.386719 1589.386719 1060.859375 1590.898438 1057.980469 C 1592.40625 1055.066406 1593.917969 1052.292969 1594.265625 1051.765625 C 1594.652344 1051.273438 1594.933594 1050.785156 1594.933594 1050.679688 C 1594.933594 1050.292969 1598.585938 1044.570312 1599.710938 1043.199219 C 1604.203125 1037.617188 1610.382812 1033.089844 1616.808594 1030.664062 L 1619.6875 1029.578125 L 1636.71875 1029.472656 C 1646.089844 1029.402344 1672.074219 1029.332031 1694.476562 1029.261719 C 1734.082031 1029.15625 1735.273438 1029.121094 1737.488281 1028.453125 C 1744.929688 1026.136719 1749.777344 1022.0625 1751.882812 1016.269531 C 1752.445312 1014.65625 1752.691406 1013.742188 1753.179688 1011.285156 C 1753.285156 1010.898438 1753.390625 997.3125 1753.425781 981.089844 C 1753.53125 950.089844 1753.601562 948.617188 1755.148438 944.753906 C 1756.269531 941.875 1757.535156 939.59375 1759.117188 937.554688 C 1759.710938 936.785156 1760.34375 935.871094 1760.519531 935.554688 C 1761.820312 933.167969 1777.550781 917.648438 1785.90625 910.488281 C 1787.90625 908.765625 1790.609375 906.414062 1791.875 905.253906 C 1795.140625 902.269531 1801.285156 896.96875 1802.40625 896.125 C 1802.933594 895.742188 1804.410156 894.546875 1805.636719 893.457031 C 1808.902344 890.613281 1810.730469 889.632812 1812.871094 889.632812 C 1814.625 889.632812 1815.714844 890.191406 1817.609375 892.125 C 1818.171875 892.6875 1822.492188 898.339844 1823.507812 899.8125 C 1823.789062 900.234375 1824.210938 900.796875 1824.386719 901.007812 C 1825.160156 901.847656 1830.144531 908.554688 1831.761719 910.835938 C 1832.671875 912.171875 1833.585938 913.4375 1833.761719 913.644531 C 1834.359375 914.382812 1840.1875 922.214844 1841.59375 924.179688 C 1842.363281 925.265625 1844.296875 927.9375 1845.875 930.113281 C 1847.457031 932.289062 1849.351562 934.886719 1850.089844 935.90625 C 1850.828125 936.921875 1852.054688 938.609375 1852.828125 939.59375 C 1853.601562 940.574219 1854.476562 941.734375 1854.757812 942.15625 C 1855.039062 942.578125 1856.480469 944.542969 1857.917969 946.542969 C 1862.238281 952.546875 1869.15625 962.765625 1869.15625 963.152344 C 1869.15625 963.257812 1869.609375 963.992188 1870.171875 964.835938 C 1871.507812 966.835938 1873.578125 971.613281 1874.210938 974.140625 C 1875.089844 977.6875 1875.230469 980.390625 1875.230469 996.539062 C 1875.195312 1011.707031 1875.230469 1012.445312 1876 1015.324219 C 1877.195312 1019.957031 1878.914062 1022.800781 1881.96875 1025.152344 C 1884.324219 1026.980469 1888.816406 1028.558594 1892.855469 1029.050781 C 1894.398438 1029.226562 1910.199219 1029.367188 1927.964844 1029.367188 C 1963.183594 1029.367188 1961.742188 1029.4375 1966.871094 1027.261719 C 1970.101562 1025.925781 1972.558594 1023.714844 1974.558594 1020.308594 C 1977.226562 1015.851562 1977.121094 1017.21875 1977.15625 984.707031 C 1977.191406 950.792969 1977.296875 951.984375 1973.960938 944.050781 C 1972.453125 940.46875 1967.851562 933.871094 1956.300781 918.703125 C 1953.28125 914.734375 1950.472656 911.011719 1950.085938 910.488281 C 1949.699219 909.960938 1948.753906 908.730469 1947.945312 907.746094 C 1947.171875 906.765625 1946.152344 905.394531 1945.699219 904.726562 C 1944.960938 903.675781 1941.625 899.355469 1934.8125 890.578125 C 1933.933594 889.457031 1932.671875 887.804688 1932.003906 886.859375 C 1931.335938 885.910156 1928.070312 881.695312 1924.769531 877.484375 C 1921.46875 873.234375 1917.679688 868.285156 1916.34375 866.460938 C 1911.675781 860.070312 1911.429688 859.507812 1912.445312 857.683594 C 1912.832031 857.015625 1913.464844 856.207031 1913.886719 855.925781 C 1915.324219 854.910156 1919.222656 852.660156 1921.296875 851.679688 C 1922.453125 851.117188 1924.210938 850.238281 1925.15625 849.675781 C 1926.140625 849.148438 1927.472656 848.378906 1928.140625 848.027344 C 1928.808594 847.640625 1929.441406 847.253906 1929.546875 847.113281 C 1929.652344 847.007812 1930.597656 846.410156 1931.652344 845.78125 C 1937.023438 842.480469 1948.542969 832.4375 1953.808594 826.363281 C 1960.867188 818.289062 1968.941406 805.019531 1972.488281 795.679688 C 1975.789062 787.113281 1978.878906 774.859375 1979.578125 767.625 C 1979.71875 766.257812 1980.035156 763.273438 1980.316406 760.957031 C 1980.914062 756.074219 1980.984375 745.542969 1980.457031 739.292969 C 1979.683594 730.304688 1977.789062 720.789062 1975.015625 711.976562 C 1974.242188 709.449219 1971.363281 702.183594 1970.484375 700.390625 C 1968.765625 697.019531 1966.941406 693.652344 1965.992188 692.140625 C 1965.394531 691.15625 1964.269531 689.367188 1963.5 688.101562 C 1962.691406 686.839844 1961.460938 685.015625 1960.726562 684.066406 C 1959.988281 683.082031 1959.179688 682.066406 1958.933594 681.75 C 1954.195312 675.464844 1944.925781 666.828125 1937.304688 661.597656 C 1927.160156 654.609375 1912.445312 647.972656 1900.402344 644.917969 C 1896.648438 643.972656 1891.167969 642.8125 1889.449219 642.636719 C 1888.710938 642.566406 1888.007812 642.425781 1887.832031 642.320312 C 1887.554688 642.144531 1885.199219 641.828125 1882.496094 641.582031 C 1881.617188 641.511719 1879.828125 641.300781 1878.460938 641.128906 C 1874.246094 640.566406 1870.839844 640.53125 1769.261719 640.53125 C 1675.621094 640.53125 1670.074219 640.566406 1667.265625 641.164062 C 1661.085938 642.460938 1656.835938 645.585938 1654.554688 650.570312 C 1653.359375 653.097656 1652.164062 657.875 1652.234375 659.664062 C 1652.234375 660.15625 1652.234375 710.117188 1652.199219 770.714844 C 1652.164062 894.054688 1651.921875 883.066406 1654.695312 885.839844 C 1655.851562 887 1656.238281 887.171875 1657.714844 887.171875 C 1660.242188 887.171875 1662.03125 886.472656 1664.140625 884.644531 C 1665.191406 883.769531 1667.054688 882.222656 1668.28125 881.242188 C 1669.511719 880.257812 1671.652344 878.394531 1673.058594 877.097656 C 1674.460938 875.761719 1677.058594 873.445312 1678.851562 871.902344 C 1680.640625 870.355469 1682.257812 868.917969 1682.503906 868.742188 C 1694.652344 857.613281 1694.40625 857.824219 1697.460938 855.257812 C 1699.777344 853.292969 1703.183594 850.308594 1705.921875 847.78125 C 1706.414062 847.359375 1708.132812 845.78125 1709.75 844.339844 C 1711.363281 842.902344 1714.03125 840.40625 1715.683594 838.863281 C 1717.332031 837.285156 1719.40625 835.421875 1720.28125 834.683594 C 1721.160156 833.984375 1723.125 832.191406 1724.707031 830.71875 C 1726.25 829.207031 1728.394531 827.242188 1729.445312 826.292969 C 1730.464844 825.347656 1732.464844 823.519531 1733.800781 822.257812 C 1735.167969 820.992188 1737.277344 819.027344 1738.539062 817.867188 C 1748.160156 809.195312 1750.265625 806.175781 1752.023438 798.699219 L 1752.9375 794.660156 L 1753.042969 770.433594 L 1753.109375 746.210938 L 1753.917969 743.925781 C 1754.375 742.664062 1755.042969 741.328125 1755.394531 740.941406 C 1755.746094 740.558594 1756.269531 739.75 1756.585938 739.1875 C 1758.167969 736.167969 1762.101562 733.570312 1767.683594 731.78125 C 1769.964844 731.078125 1850.757812 731.078125 1854.757812 731.816406 C 1860.0625 732.761719 1865.785156 734.765625 1868.066406 736.449219 C 1869.960938 737.820312 1873.226562 741.46875 1874.175781 743.191406 C 1876.351562 747.261719 1876.667969 748.632812 1876.667969 753.757812 C 1876.667969 757.726562 1876.5625 758.917969 1875.859375 761.132812 C 1873.964844 767.308594 1870.59375 771.3125 1864.730469 774.4375 C 1860.199219 776.824219 1856.550781 778.089844 1846.683594 780.582031 C 1840.328125 782.195312 1825.441406 786.902344 1822.632812 788.164062 C 1821.859375 788.515625 1818.875 789.816406 1815.960938 791.078125 C 1807.675781 794.660156 1802.265625 797.1875 1798.792969 799.121094 C 1794.191406 801.683594 1786.328125 806.175781 1784.886719 807.125 C 1779.796875 810.355469 1770.5625 816.570312 1768.382812 818.183594 C 1766.945312 819.238281 1765.363281 820.394531 1764.875 820.746094 C 1763.1875 821.871094 1749.707031 832.332031 1749.425781 832.753906 C 1749.320312 832.859375 1746.722656 835.070312 1743.632812 837.667969 C 1740.542969 840.234375 1737.769531 842.621094 1737.453125 842.902344 C 1737.136719 843.21875 1735.90625 844.339844 1734.679688 845.394531 C 1733.484375 846.445312 1731.132812 848.589844 1729.445312 850.132812 C 1727.796875 851.714844 1725.410156 853.925781 1724.144531 855.046875 C 1718.808594 860 1689.910156 889.175781 1686.609375 892.96875 C 1685.941406 893.738281 1684.363281 895.496094 1683.097656 896.828125 C 1681.835938 898.199219 1680.148438 900.023438 1679.378906 900.867188 C 1674.355469 906.449219 1663.367188 918.105469 1660.417969 921.019531 C 1656.976562 924.425781 1653.921875 926.917969 1649.601562 929.9375 C 1647.179688 931.585938 1640.648438 934.921875 1639.773438 934.921875 C 1639.457031 934.921875 1638.472656 935.167969 1637.558594 935.484375 C 1636.683594 935.765625 1634.644531 936.1875 1633.066406 936.363281 C 1631.414062 936.539062 1603.5 936.679688 1565.722656 936.679688 L 1501.222656 936.679688 L 1498.132812 935.625 C 1494.796875 934.464844 1493.496094 933.695312 1490.96875 931.480469 C 1488.722656 929.480469 1486.546875 925.09375 1486.089844 921.617188 C 1485.878906 920.175781 1485.738281 912.59375 1485.738281 904.761719 C 1485.738281 891.492188 1485.808594 890.296875 1486.476562 887.523438 C 1486.898438 885.875 1487.667969 883.664062 1488.195312 882.609375 C 1490.300781 878.5 1495.5 874.886719 1500.308594 874.21875 C 1501.75 874.007812 1522.324219 873.796875 1550.695312 873.691406 C 1577.0625 873.585938 1599.113281 873.445312 1599.710938 873.339844 C 1606.066406 872.359375 1611.71875 868.355469 1614.070312 863.125 C 1616.457031 857.859375 1616.421875 858.628906 1616.28125 826.609375 L 1616.175781 797.820312 L 1615.371094 795.609375 C 1613.859375 791.429688 1612.035156 788.726562 1609.328125 786.65625 C 1607.75 785.460938 1603.816406 783.777344 1601.570312 783.355469 C 1600.902344 783.214844 1577.941406 783.074219 1550.519531 783.003906 C 1520.359375 782.933594 1499.921875 782.757812 1498.800781 782.546875 C 1491.953125 781.320312 1486.617188 775.351562 1485.84375 768.152344 C 1485.316406 763.273438 1485.5625 749.160156 1486.230469 745.859375 C 1487.773438 738.378906 1492.410156 733.535156 1499.605469 731.851562 C 1501.820312 731.324219 1507.367188 731.253906 1552.976562 731.148438 C 1591.492188 731.078125 1604.34375 730.9375 1605.75 730.621094 C 1607.363281 730.269531 1609.46875 729.320312 1612.558594 727.53125 C 1614.667969 726.335938 1617.265625 722.582031 1618.738281 718.542969 L 1619.6875 716.015625 L 1619.792969 688.277344 C 1619.863281 668.933594 1619.757812 659.59375 1619.476562 657.453125 C 1618.84375 652.398438 1616.773438 648.078125 1613.824219 645.480469 C 1611.542969 643.480469 1609.15625 642.179688 1606.03125 641.300781 L 1603.535156 640.566406 L 1503.996094 640.53125 C 1449.257812 640.496094 1403.332031 640.566406 1401.925781 640.707031 Z M 1401.925781 640.707031 " fill-opacity="1" fill-rule="nonzero"/><path fill="#000000" d="M 1666.035156 1064.230469 C 1663.015625 1064.511719 1658.695312 1065.773438 1655.851562 1067.214844 C 1652.691406 1068.792969 1649.882812 1071.183594 1647.109375 1074.65625 C 1643.597656 1079.082031 1641.667969 1082.3125 1633.734375 1097.304688 C 1631.0625 1102.324219 1628.535156 1106.992188 1628.113281 1107.660156 C 1627.691406 1108.328125 1626.359375 1110.785156 1625.128906 1113.101562 C 1622.390625 1118.335938 1620.53125 1121.773438 1620.214844 1122.230469 C 1620.074219 1122.40625 1619.195312 1124.09375 1618.285156 1125.917969 C 1617.335938 1127.742188 1615.371094 1131.535156 1613.894531 1134.34375 C 1612.417969 1137.152344 1609.960938 1141.789062 1608.453125 1144.703125 C 1606.976562 1147.582031 1605.609375 1150.109375 1605.46875 1150.320312 C 1605.152344 1150.738281 1603.746094 1153.339844 1599.253906 1161.90625 C 1597.390625 1165.378906 1595.460938 1168.996094 1594.933594 1169.980469 C 1594.40625 1170.929688 1593.179688 1173.140625 1592.230469 1174.894531 C 1591.28125 1176.617188 1589.175781 1180.582031 1587.5625 1183.671875 C 1585.945312 1186.761719 1583.734375 1190.941406 1582.644531 1192.976562 C 1581.558594 1195.011719 1579.765625 1198.3125 1578.714844 1200.351562 C 1577.625 1202.386719 1575.9375 1205.511719 1574.957031 1207.335938 C 1573.972656 1209.160156 1573.164062 1210.707031 1573.164062 1210.777344 C 1573.164062 1210.882812 1572.882812 1211.375 1572.535156 1211.867188 C 1572.148438 1212.390625 1571.023438 1214.394531 1570.003906 1216.324219 C 1568.988281 1218.253906 1568.039062 1219.976562 1567.898438 1220.1875 C 1567.757812 1220.363281 1566.738281 1222.222656 1565.652344 1224.292969 C 1564.5625 1226.367188 1563.335938 1228.683594 1562.914062 1229.386719 C 1561.753906 1231.492188 1555.609375 1243.21875 1555.609375 1243.429688 C 1555.609375 1243.5 1554.695312 1245.253906 1553.539062 1247.324219 C 1551.5 1251.046875 1551.011719 1251.960938 1546.128906 1261.089844 C 1544.726562 1263.6875 1543.460938 1265.96875 1543.320312 1266.179688 C 1542.96875 1266.636719 1538.054688 1275.871094 1534.296875 1283.207031 C 1532.648438 1286.402344 1529.769531 1291.84375 1527.871094 1295.320312 C 1526.011719 1298.796875 1523.660156 1303.148438 1522.710938 1304.976562 C 1521.726562 1306.800781 1520.5 1309.082031 1519.972656 1310.066406 C 1519.445312 1311.015625 1518.039062 1313.71875 1516.8125 1316.035156 C 1515.617188 1318.351562 1514.214844 1320.949219 1513.757812 1321.828125 C 1513.265625 1322.707031 1511.859375 1325.304688 1510.667969 1327.621094 C 1506.066406 1336.433594 1504.59375 1339.277344 1503.644531 1340.960938 C 1502.730469 1342.648438 1501.574219 1344.789062 1498.871094 1349.808594 C 1498.167969 1351.144531 1497.21875 1352.828125 1496.796875 1353.601562 C 1496.375 1354.375 1494.304688 1358.238281 1492.234375 1362.203125 C 1490.160156 1366.171875 1488.089844 1370.070312 1487.632812 1370.910156 C 1487.175781 1371.71875 1485.984375 1373.929688 1485 1375.828125 C 1483.980469 1377.6875 1482.542969 1380.425781 1481.769531 1381.863281 C 1480.996094 1383.304688 1479.488281 1386.183594 1478.398438 1388.289062 C 1477.3125 1390.363281 1475.941406 1392.960938 1475.308594 1394.082031 C 1474.714844 1395.171875 1474.082031 1396.332031 1473.941406 1396.609375 C 1473.800781 1396.890625 1471.867188 1400.507812 1469.691406 1404.617188 C 1467.515625 1408.722656 1465.722656 1412.128906 1465.722656 1412.199219 C 1465.722656 1412.269531 1465.164062 1413.359375 1464.460938 1414.585938 C 1463.757812 1415.78125 1462.179688 1418.765625 1460.914062 1421.1875 C 1459.648438 1423.609375 1458.175781 1426.347656 1457.648438 1427.332031 C 1457.121094 1428.28125 1455.683594 1430.984375 1454.488281 1433.300781 C 1451.609375 1438.777344 1446.273438 1448.890625 1445.429688 1450.363281 C 1444.164062 1452.644531 1442.269531 1456.15625 1440.621094 1459.28125 C 1439.671875 1461 1438.511719 1463.214844 1437.988281 1464.195312 C 1437.460938 1465.144531 1436.125 1467.671875 1435 1469.8125 C 1433.878906 1471.921875 1432.542969 1474.449219 1432.015625 1475.433594 C 1430.542969 1478.101562 1428.402344 1482.101562 1426.679688 1485.4375 C 1424.082031 1490.351562 1421.484375 1495.269531 1419.625 1498.605469 C 1418.675781 1500.324219 1417.199219 1503.097656 1416.324219 1504.75 C 1415.445312 1506.398438 1414.601562 1507.871094 1414.460938 1508.082031 C 1414.179688 1508.46875 1412.53125 1511.488281 1409.792969 1516.683594 C 1408.808594 1518.511719 1407.507812 1520.933594 1406.84375 1522.058594 C 1406.210938 1523.179688 1405.683594 1524.128906 1405.683594 1524.199219 C 1405.683594 1524.375 1398.519531 1537.75 1394.90625 1544.421875 C 1393.148438 1547.617188 1389.460938 1554.324219 1386.722656 1559.34375 C 1380.367188 1570.894531 1377.945312 1575.84375 1376.925781 1579.179688 C 1376.507812 1580.621094 1376.015625 1582.234375 1375.875 1582.726562 C 1375.734375 1583.21875 1375.558594 1584.691406 1375.523438 1586.0625 C 1375.382812 1591.433594 1378.578125 1597.261719 1383.246094 1600.175781 C 1385.601562 1601.613281 1389.496094 1603.019531 1392.269531 1603.40625 C 1394.167969 1603.6875 1414.777344 1603.757812 1462.914062 1603.6875 L 1530.855469 1603.582031 L 1533.628906 1602.527344 C 1537.984375 1600.914062 1541.425781 1598.628906 1543.566406 1596.03125 C 1545.355469 1593.785156 1546.550781 1591.433594 1552.273438 1578.300781 C 1553.398438 1575.773438 1554.871094 1572.472656 1555.609375 1570.929688 C 1556.3125 1569.382812 1557.261719 1567.3125 1557.714844 1566.363281 C 1559.402344 1562.609375 1561.050781 1559.097656 1564.070312 1553.023438 C 1567.933594 1545.195312 1569.757812 1543.050781 1573.023438 1542.5625 C 1576.535156 1542 1579.414062 1544.527344 1579.976562 1548.636719 C 1580.117188 1549.511719 1580.292969 1557.9375 1580.363281 1567.417969 C 1580.433594 1576.863281 1580.609375 1585.253906 1580.714844 1586.027344 C 1580.996094 1588.097656 1582.257812 1591.75 1583.277344 1593.574219 C 1586.121094 1598.664062 1591.527344 1602.492188 1597.042969 1603.371094 C 1598.585938 1603.617188 1630.539062 1603.757812 1694.582031 1603.757812 C 1800.617188 1603.757812 1791.945312 1603.96875 1796.824219 1601.402344 C 1803.496094 1597.859375 1806.972656 1592.382812 1807.710938 1584.199219 C 1807.921875 1581.8125 1808.027344 1488.492188 1807.957031 1330.429688 L 1807.851562 1080.449219 L 1807.042969 1077.992188 C 1806.164062 1075.359375 1804.480469 1072.339844 1802.898438 1070.585938 C 1801.742188 1069.355469 1798.40625 1066.582031 1798.054688 1066.582031 C 1797.914062 1066.582031 1797 1066.160156 1795.980469 1065.671875 C 1795 1065.179688 1793.242188 1064.582031 1792.085938 1064.371094 C 1789.628906 1063.914062 1670.667969 1063.773438 1666.035156 1064.230469 Z M 1649.042969 1298.867188 C 1649.425781 1299.183594 1649.707031 1299.746094 1649.707031 1300.09375 C 1649.707031 1300.445312 1649.882812 1300.832031 1650.058594 1300.9375 C 1650.832031 1301.429688 1650.480469 1309.679688 1648.480469 1336.574219 C 1648.199219 1340.332031 1647.882812 1344.929688 1647.777344 1346.753906 C 1647.285156 1354.09375 1647.144531 1354.9375 1645.988281 1356.480469 C 1643.84375 1359.324219 1640.753906 1360.0625 1631.0625 1360.097656 C 1623.867188 1360.097656 1622.003906 1359.710938 1619.792969 1357.710938 C 1618.144531 1356.234375 1617.6875 1355.21875 1617.722656 1353.179688 C 1617.722656 1351.53125 1617.96875 1350.933594 1622.671875 1341.3125 C 1624.570312 1337.453125 1627.027344 1332.394531 1628.113281 1330.078125 C 1630.152344 1325.832031 1631.871094 1322.355469 1632.503906 1321.195312 C 1632.679688 1320.878906 1634.820312 1316.492188 1637.242188 1311.472656 C 1642.335938 1301.007812 1643.457031 1299.113281 1644.933594 1298.445312 C 1646.230469 1297.847656 1648.128906 1298.058594 1649.042969 1298.867188 Z M 1649.042969 1298.867188 " fill-opacity="1" fill-rule="nonzero"/><path fill="#000000" d="M 1857.390625 1064.160156 C 1853.109375 1064.476562 1849.632812 1065.425781 1846.507812 1067.179688 C 1844.121094 1068.515625 1841.242188 1071.636719 1839.695312 1074.621094 C 1838.046875 1077.78125 1837.625 1079.574219 1837.414062 1083.960938 C 1837.308594 1085.683594 1837.238281 1198.769531 1837.238281 1335.238281 C 1837.203125 1516.648438 1837.308594 1584.058594 1837.589844 1585.921875 C 1838.046875 1588.90625 1839.238281 1592.3125 1840.503906 1594.136719 C 1842.328125 1596.839844 1845.59375 1599.789062 1848.191406 1601.089844 C 1853.566406 1603.757812 1848.859375 1603.546875 1906.863281 1603.6875 C 1958.023438 1603.757812 1958.863281 1603.757812 1961.636719 1603.054688 C 1965.992188 1601.964844 1968.660156 1600.492188 1971.609375 1597.578125 C 1974.488281 1594.699219 1976 1591.925781 1976.59375 1588.273438 C 1977.050781 1585.394531 1977.085938 1083.960938 1976.59375 1080.625 C 1976.140625 1077.222656 1974.769531 1073.535156 1973.644531 1072.585938 C 1973.328125 1072.339844 1973.085938 1071.917969 1973.085938 1071.671875 C 1973.085938 1071.148438 1969.890625 1068.199219 1968.0625 1067.039062 C 1966.273438 1065.914062 1962.164062 1064.582031 1959.53125 1064.300781 C 1956.863281 1063.984375 1861.570312 1063.878906 1857.390625 1064.160156 Z M 1857.390625 1064.160156 " fill-opacity="1" fill-rule="nonzero"/><path fill="#000000" d="M 1256.109375 1162.117188 C 1251.648438 1162.886719 1248.382812 1164.046875 1246.277344 1165.554688 C 1242.414062 1168.363281 1240.132812 1173 1239.746094 1178.863281 C 1239.640625 1180.546875 1239.5 1230.648438 1239.464844 1290.230469 C 1239.429688 1393.453125 1239.394531 1398.613281 1238.800781 1399.945312 C 1237.957031 1401.808594 1237.253906 1402.542969 1235.605469 1403.28125 C 1234.410156 1403.84375 1234.058594 1403.878906 1232.691406 1403.457031 C 1231.847656 1403.210938 1230.898438 1402.789062 1230.582031 1402.507812 C 1229.179688 1401.351562 1224.613281 1394.328125 1221.875 1389.0625 C 1220.296875 1386.007812 1219.699219 1384.917969 1217.800781 1381.515625 C 1217.3125 1380.636719 1216.046875 1378.355469 1215.027344 1376.421875 C 1212.113281 1370.910156 1209.023438 1365.292969 1208.183594 1363.960938 C 1207.199219 1362.414062 1201.6875 1352.339844 1199.054688 1347.28125 C 1197.929688 1345.140625 1196.769531 1343.035156 1196.488281 1342.542969 C 1196.175781 1342.050781 1195.472656 1340.789062 1194.910156 1339.734375 C 1193.855469 1337.734375 1193.015625 1336.222656 1189.925781 1330.605469 C 1187.152344 1325.550781 1186.273438 1323.96875 1184.832031 1321.476562 C 1184.132812 1320.214844 1183.289062 1318.703125 1183.007812 1318.140625 C 1182.726562 1317.542969 1182.09375 1316.386719 1181.601562 1315.507812 C 1180.269531 1313.121094 1178.757812 1310.347656 1177.285156 1307.609375 C 1176.582031 1306.238281 1175.597656 1304.449219 1175.105469 1303.570312 C 1174.652344 1302.695312 1173.597656 1300.796875 1172.859375 1299.359375 C 1172.085938 1297.917969 1170.894531 1295.777344 1170.226562 1294.617188 C 1169.59375 1293.460938 1168.753906 1291.949219 1168.4375 1291.28125 C 1168.085938 1290.617188 1166.433594 1287.5625 1164.75 1284.542969 C 1163.0625 1281.488281 1161.660156 1278.925781 1161.660156 1278.785156 C 1161.660156 1278.679688 1161.378906 1278.152344 1160.992188 1277.660156 C 1160.640625 1277.132812 1159.589844 1275.273438 1158.675781 1273.550781 C 1154.882812 1266.496094 1152.601562 1262.246094 1151.828125 1260.914062 C 1151.40625 1260.140625 1150.355469 1258.246094 1149.546875 1256.699219 C 1146.808594 1251.539062 1145.4375 1248.976562 1144.804688 1247.921875 C 1144.488281 1247.324219 1143.4375 1245.429688 1142.523438 1243.710938 C 1141.574219 1241.953125 1140.59375 1240.164062 1140.3125 1239.671875 C 1140.066406 1239.179688 1139.292969 1237.847656 1138.660156 1236.6875 C 1137.996094 1235.527344 1137.082031 1233.878906 1136.625 1233 C 1136.167969 1232.125 1135.253906 1230.472656 1134.625 1229.316406 C 1133.992188 1228.15625 1133.042969 1226.402344 1132.515625 1225.453125 C 1131.992188 1224.46875 1131.183594 1223.066406 1130.761719 1222.292969 C 1130.339844 1221.519531 1128.234375 1217.660156 1126.125 1213.691406 C 1124.019531 1209.722656 1122.160156 1206.246094 1121.949219 1205.96875 C 1121.773438 1205.6875 1121.492188 1205.125 1121.316406 1204.703125 C 1121.140625 1204.316406 1120.261719 1202.773438 1119.386719 1201.261719 C 1118.507812 1199.753906 1117.769531 1198.453125 1117.769531 1198.347656 C 1117.769531 1198.03125 1115.347656 1195.117188 1113.207031 1192.835938 C 1109.484375 1188.867188 1103.164062 1185.394531 1098.5625 1184.726562 C 1094.070312 1184.09375 1084.167969 1183.953125 1044.5625 1184.023438 C 1004.394531 1184.09375 1000.078125 1184.128906 997.515625 1184.691406 C 990.492188 1186.164062 984.980469 1190.765625 983.011719 1196.664062 C 981.433594 1201.542969 981.503906 1190.730469 981.539062 1394.222656 C 981.539062 1520.335938 981.644531 1585.429688 981.890625 1586.027344 C 982.101562 1586.519531 982.242188 1587.359375 982.242188 1587.816406 C 982.242188 1589.222656 984.59375 1594.3125 986.03125 1596.03125 C 987.929688 1598.28125 989.015625 1599.296875 990.175781 1599.894531 C 990.738281 1600.175781 991.578125 1600.667969 992.070312 1600.984375 C 993.40625 1601.824219 997.023438 1602.984375 999.691406 1603.40625 C 1001.269531 1603.652344 1014.578125 1603.757812 1038.769531 1603.6875 L 1075.460938 1603.582031 L 1077.917969 1602.738281 C 1083.359375 1600.914062 1087.855469 1597.226562 1090.171875 1592.695312 C 1092.769531 1587.640625 1092.558594 1596.3125 1092.699219 1486.914062 C 1092.769531 1413.359375 1092.910156 1387.972656 1093.226562 1386.5 C 1093.929688 1382.988281 1096.386719 1380.460938 1099.019531 1380.460938 C 1101.128906 1380.460938 1104.5 1385.128906 1110.222656 1396.085938 C 1111.132812 1397.804688 1111.976562 1399.386719 1112.117188 1399.59375 C 1112.292969 1399.769531 1114.011719 1403.105469 1116.015625 1406.96875 C 1117.980469 1410.832031 1119.738281 1414.128906 1119.878906 1414.339844 C 1120.015625 1414.515625 1120.929688 1416.203125 1121.914062 1418.097656 C 1122.898438 1419.957031 1125.074219 1423.960938 1126.722656 1426.980469 C 1128.375 1430 1129.707031 1432.527344 1129.707031 1432.597656 C 1129.707031 1432.703125 1131.851562 1436.636719 1134.449219 1441.375 C 1137.046875 1446.117188 1139.46875 1450.574219 1139.820312 1451.3125 C 1140.171875 1452.015625 1141.328125 1454.191406 1142.417969 1456.121094 C 1144.175781 1459.316406 1146.28125 1463.214844 1149.195312 1468.761719 C 1152.496094 1475.011719 1153.757812 1477.363281 1154.671875 1479.011719 C 1158.535156 1486.035156 1159.625 1488.035156 1162.046875 1492.636719 C 1164.820312 1497.902344 1169.277344 1506.1875 1169.734375 1506.960938 C 1169.945312 1507.3125 1171.035156 1509.382812 1172.15625 1511.523438 C 1173.28125 1513.699219 1174.546875 1516.089844 1175 1516.859375 C 1175.421875 1517.632812 1176.546875 1519.667969 1177.460938 1521.425781 C 1181.179688 1528.445312 1183.78125 1533.222656 1186.132812 1537.398438 C 1188.203125 1541.15625 1191.960938 1548.074219 1195.824219 1555.304688 C 1196.382812 1556.359375 1196.980469 1557.378906 1197.121094 1557.585938 C 1197.261719 1557.761719 1198.527344 1560.152344 1199.929688 1562.855469 C 1201.335938 1565.558594 1202.808594 1568.332031 1203.195312 1569 C 1203.582031 1569.664062 1205.304688 1572.894531 1207.058594 1576.195312 C 1213.589844 1588.589844 1215.484375 1591.539062 1219.136719 1595.015625 C 1223.035156 1598.769531 1230.582031 1602.351562 1236.796875 1603.40625 C 1238.414062 1603.6875 1253.195312 1603.757812 1286.480469 1603.652344 C 1338.972656 1603.546875 1335.074219 1603.722656 1340.726562 1601.195312 C 1345.925781 1598.910156 1350.417969 1592.800781 1351.085938 1587.148438 C 1351.402344 1584.445312 1351.542969 1182.410156 1351.226562 1178.933594 C 1350.769531 1174.121094 1348.769531 1169.488281 1345.925781 1166.785156 C 1343.152344 1164.152344 1340.65625 1163.0625 1335.109375 1162.117188 C 1332.757812 1161.695312 1258.390625 1161.695312 1256.109375 1162.117188 Z M 1256.109375 1162.117188 " fill-opacity="1" fill-rule="nonzero"/><path fill="#000000" d="M 265.792969 1184.199219 C 255.679688 1185.324219 249.605469 1190.414062 247.464844 1199.542969 C 246.867188 1202.105469 246.832031 1204.632812 246.832031 1236.335938 C 246.832031 1268.425781 246.867188 1270.535156 247.5 1272.851562 C 249.113281 1278.960938 252.167969 1282.996094 256.980469 1285.3125 C 262.105469 1287.773438 262.105469 1287.773438 294.160156 1287.773438 C 313.648438 1287.773438 323.339844 1287.914062 324.917969 1288.160156 C 327.589844 1288.613281 330.78125 1289.984375 332.960938 1291.597656 C 334.714844 1292.898438 336.996094 1296.234375 337.875 1298.796875 C 338.4375 1300.480469 338.472656 1309.046875 338.648438 1444.359375 L 338.824219 1588.132812 L 339.773438 1590.519531 C 342.371094 1596.980469 347.53125 1601.300781 354.730469 1603.089844 C 357.292969 1603.722656 359.363281 1603.757812 394.757812 1603.757812 C 434.851562 1603.757812 434.78125 1603.757812 438.996094 1601.964844 C 444.121094 1599.789062 448.230469 1595.050781 449.8125 1589.539062 C 450.371094 1587.570312 450.40625 1578.546875 450.441406 1445.589844 C 450.476562 1330.359375 450.582031 1303.429688 450.933594 1301.992188 C 452.234375 1297.074219 455.359375 1292.722656 459.253906 1290.40625 C 463.75 1287.738281 458.0625 1287.984375 524.386719 1287.773438 C 590.46875 1287.5625 585.199219 1287.773438 590.363281 1285.246094 C 594.890625 1283.066406 598.964844 1277.660156 600.050781 1272.429688 C 600.789062 1268.988281 600.789062 1204 600.085938 1199.929688 C 598.71875 1192.34375 593.835938 1187.113281 586.078125 1184.9375 L 582.847656 1184.058594 L 425.550781 1183.988281 C 339.035156 1183.953125 267.160156 1184.058594 265.792969 1184.199219 Z M 265.792969 1184.199219 " fill-opacity="1" fill-rule="nonzero"/><path fill="#000000" d="M 784.5625 1204.632812 C 778.277344 1204.914062 773.257812 1205.40625 766.832031 1206.351562 C 764.339844 1206.738281 761.25 1207.195312 759.984375 1207.40625 C 758.722656 1207.582031 756.929688 1207.898438 755.945312 1208.109375 C 751.875 1208.988281 745.308594 1210.601562 743.832031 1211.023438 C 742.957031 1211.304688 740.988281 1211.867188 739.445312 1212.25 C 722.378906 1216.886719 708.195312 1223.59375 692.253906 1234.476562 C 690.359375 1235.773438 683.722656 1240.902344 681.511719 1242.796875 C 673.785156 1249.363281 671.785156 1251.328125 666.273438 1257.648438 C 660.761719 1263.96875 659.847656 1265.125 657.988281 1267.757812 C 657.25 1268.8125 656.195312 1270.324219 655.632812 1271.09375 C 651.632812 1276.816406 645.941406 1285.664062 644.503906 1288.472656 C 643.835938 1289.738281 642.714844 1291.808594 641.976562 1293.074219 C 640.078125 1296.339844 636.324219 1304.308594 635.199219 1307.433594 C 634.671875 1308.871094 633.828125 1311.085938 633.339844 1312.347656 C 631.6875 1316.5625 628.421875 1326.847656 627.160156 1331.835938 C 625.226562 1339.453125 623.296875 1347.949219 622.875 1350.617188 C 622.769531 1351.285156 622.382812 1353.8125 621.996094 1356.234375 C 621.296875 1360.695312 621.226562 1361.222656 620.558594 1367.121094 C 619.714844 1374.914062 619.539062 1376.667969 619.1875 1380.988281 C 617.960938 1395.699219 618.066406 1421.398438 619.363281 1433.476562 C 619.46875 1434.355469 619.609375 1435.828125 619.714844 1436.8125 C 619.820312 1437.757812 619.960938 1439.128906 620.066406 1439.796875 C 620.136719 1440.460938 620.3125 1441.972656 620.417969 1443.132812 C 620.734375 1446.816406 622.980469 1461.667969 623.929688 1466.304688 C 624.210938 1467.636719 625.15625 1471.605469 626.035156 1475.082031 C 626.914062 1478.554688 627.789062 1481.960938 627.964844 1482.628906 C 628.28125 1483.894531 630.496094 1491.160156 630.84375 1492.109375 C 630.984375 1492.390625 631.40625 1493.722656 631.828125 1495.09375 C 632.25 1496.425781 633.375 1499.550781 634.320312 1501.972656 C 635.269531 1504.433594 636.042969 1506.503906 636.042969 1506.644531 C 636.042969 1507.3125 642.851562 1521.460938 645.242188 1525.8125 C 646.046875 1527.253906 646.925781 1528.9375 647.242188 1529.535156 C 647.558594 1530.097656 648.191406 1531.082031 648.613281 1531.675781 C 649.03125 1532.273438 649.382812 1532.90625 649.382812 1533.117188 C 649.382812 1533.292969 649.59375 1533.644531 649.875 1533.855469 C 650.121094 1534.066406 651.070312 1535.46875 651.980469 1536.980469 C 652.894531 1538.453125 654.019531 1540.242188 654.476562 1540.910156 C 654.933594 1541.578125 655.703125 1542.667969 656.125 1543.296875 C 656.582031 1543.894531 657.460938 1545.019531 658.054688 1545.757812 C 658.6875 1546.457031 659.214844 1547.230469 659.214844 1547.40625 C 659.214844 1547.617188 659.496094 1548.039062 659.847656 1548.320312 C 660.164062 1548.636719 660.9375 1549.476562 661.496094 1550.214844 C 662.09375 1550.953125 663.253906 1552.355469 664.132812 1553.339844 C 665.007812 1554.324219 666.519531 1556.078125 667.464844 1557.238281 C 669.609375 1559.765625 676.382812 1566.574219 679.964844 1569.699219 C 685.617188 1574.722656 698.398438 1584.09375 699.558594 1584.09375 C 699.769531 1584.09375 700.050781 1584.304688 700.191406 1584.515625 C 700.472656 1584.972656 700.824219 1585.183594 704.859375 1587.324219 C 705.914062 1587.886719 706.933594 1588.484375 707.140625 1588.660156 C 707.914062 1589.328125 721.082031 1595.679688 721.644531 1595.679688 C 721.785156 1595.679688 722.519531 1595.996094 723.292969 1596.382812 C 724.066406 1596.769531 724.875 1597.085938 725.121094 1597.085938 C 725.398438 1597.085938 725.960938 1597.296875 726.382812 1597.578125 C 727.789062 1598.488281 739.445312 1602.140625 744.535156 1603.230469 C 745.976562 1603.546875 748.363281 1604.109375 749.800781 1604.457031 C 753.03125 1605.265625 759.492188 1606.460938 762.089844 1606.742188 C 763.144531 1606.847656 764.726562 1607.09375 765.601562 1607.265625 C 767.183594 1607.582031 776.171875 1608.460938 782.28125 1608.882812 C 785.6875 1609.128906 801.558594 1609.128906 805.277344 1608.882812 C 809.5625 1608.601562 823.152344 1606.953125 825.714844 1606.390625 C 828.242188 1605.828125 831.894531 1605.089844 835.300781 1604.386719 C 836.28125 1604.179688 838.074219 1603.722656 839.300781 1603.371094 C 840.53125 1602.984375 841.722656 1602.703125 841.96875 1602.703125 C 843.09375 1602.703125 858.226562 1597.367188 862.335938 1595.542969 C 862.933594 1595.296875 863.773438 1594.910156 864.265625 1594.699219 C 864.757812 1594.523438 866.371094 1593.785156 867.882812 1593.046875 C 869.425781 1592.347656 871.359375 1591.46875 872.234375 1591.082031 C 873.078125 1590.730469 875.5 1589.433594 877.539062 1588.238281 C 879.609375 1587.078125 881.996094 1585.710938 882.839844 1585.21875 C 883.683594 1584.761719 885.472656 1583.640625 886.84375 1582.726562 C 888.175781 1581.847656 889.546875 1580.933594 889.863281 1580.761719 C 890.179688 1580.550781 890.5625 1580.199219 890.703125 1579.988281 C 890.84375 1579.742188 891.160156 1579.53125 891.40625 1579.53125 C 891.652344 1579.53125 892.25 1579.179688 892.707031 1578.722656 C 893.199219 1578.300781 894.25 1577.460938 895.023438 1576.898438 C 897.9375 1574.757812 900.535156 1572.753906 901.097656 1572.191406 C 901.449219 1571.84375 902.046875 1571.351562 902.433594 1571.070312 C 904.679688 1569.488281 915.316406 1559.203125 917.8125 1556.183594 C 918.300781 1555.585938 919.742188 1553.832031 921.078125 1552.25 C 922.375 1550.707031 924.761719 1547.546875 926.414062 1545.265625 C 928.0625 1543.015625 929.75 1540.769531 930.207031 1540.3125 C 930.625 1539.859375 930.976562 1539.261719 930.976562 1539.015625 C 930.976562 1538.769531 931.292969 1538.277344 931.679688 1537.925781 C 932.066406 1537.574219 932.382812 1537.152344 932.382812 1536.980469 C 932.382812 1536.804688 933.121094 1535.539062 934.066406 1534.167969 C 935.71875 1531.675781 936.664062 1529.992188 939.613281 1524.410156 C 940.492188 1522.757812 941.335938 1521.179688 941.511719 1520.898438 C 943.652344 1517.175781 950.992188 1499.199219 952.746094 1493.335938 C 953.167969 1491.96875 953.871094 1489.6875 954.363281 1488.246094 C 955.589844 1484.558594 959.277344 1469.882812 960.15625 1465.25 C 961.664062 1457.035156 962.894531 1449.695312 963.070312 1447.695312 C 963.175781 1446.535156 963.421875 1444.394531 963.597656 1442.957031 C 964.859375 1433.125 965.28125 1423.574219 965.316406 1405.738281 C 965.386719 1387.167969 964.859375 1377.933594 963.035156 1365.539062 C 962.753906 1363.398438 962.4375 1361.363281 962.402344 1360.976562 C 961.769531 1356.65625 959.3125 1343.773438 958.574219 1340.789062 C 958.292969 1339.734375 957.800781 1337.734375 957.453125 1336.398438 C 957.136719 1335.027344 956.257812 1331.800781 955.484375 1329.199219 C 954.714844 1326.601562 953.976562 1323.96875 953.800781 1323.40625 C 952.957031 1320.285156 948.394531 1307.960938 946.882812 1304.625 C 946.390625 1303.570312 945.6875 1301.886719 945.304688 1300.9375 C 944.285156 1298.304688 939.335938 1288.613281 937.4375 1285.453125 C 935.085938 1281.523438 929.328125 1272.816406 927.746094 1270.742188 C 920.023438 1260.632812 913.738281 1253.503906 908.296875 1248.625 C 906.574219 1247.082031 905.03125 1245.640625 904.820312 1245.429688 C 904.222656 1244.796875 899.660156 1241.042969 896.535156 1238.617188 C 893.480469 1236.265625 882.488281 1228.824219 878.835938 1226.613281 C 876.554688 1225.242188 867.496094 1220.644531 864.089844 1219.132812 C 861.070312 1217.800781 849.800781 1213.550781 846.886719 1212.671875 C 825.46875 1206.214844 805.945312 1203.683594 784.5625 1204.632812 Z M 795.625 1309.890625 C 801.242188 1310.488281 802.257812 1310.628906 805.347656 1311.296875 C 810.617188 1312.488281 814.300781 1314.035156 821.078125 1317.894531 C 825.011719 1320.144531 832.210938 1326.601562 835.265625 1330.605469 C 838.84375 1335.34375 842.601562 1341.980469 845.128906 1348.160156 C 848.992188 1357.605469 852.257812 1370.417969 853.59375 1381.164062 C 853.628906 1381.65625 853.800781 1382.917969 853.941406 1383.972656 C 854.082031 1385.023438 854.1875 1386.007812 854.152344 1386.113281 C 854.117188 1386.253906 854.257812 1387.273438 854.433594 1388.394531 C 854.996094 1392.292969 855.242188 1397.136719 855.277344 1405.597656 C 855.347656 1416.871094 855.066406 1421.363281 853.699219 1432.597656 C 853.523438 1434.144531 853.277344 1435.933594 853.207031 1436.53125 C 852.996094 1438.566406 851.554688 1445.308594 850.746094 1448.222656 C 850.503906 1449.101562 850.152344 1450.433594 849.941406 1451.207031 C 848.113281 1457.949219 846.816406 1461.667969 844.359375 1467.074219 C 843.902344 1468.09375 843.375 1469.253906 843.199219 1469.707031 C 842.601562 1471.078125 839.265625 1477.1875 838.984375 1477.363281 C 838.84375 1477.46875 838.179688 1478.417969 837.476562 1479.46875 C 835.929688 1481.785156 835.125 1482.839844 832.945312 1485.121094 C 832 1486.070312 831.261719 1487.019531 831.261719 1487.160156 C 831.261719 1487.332031 830.628906 1487.894531 829.855469 1488.421875 C 829.085938 1488.949219 828.453125 1489.511719 828.453125 1489.6875 C 828.453125 1489.863281 827.539062 1490.667969 826.449219 1491.476562 C 825.328125 1492.320312 824.273438 1493.195312 824.132812 1493.40625 C 823.992188 1493.652344 823.640625 1493.863281 823.359375 1493.863281 C 823.082031 1493.863281 822.730469 1494.074219 822.589844 1494.320312 C 822.273438 1494.8125 819.464844 1496.742188 818.621094 1497.023438 C 818.339844 1497.128906 816.585938 1497.9375 814.757812 1498.851562 C 805.417969 1503.34375 792.742188 1504.714844 781.929688 1502.429688 C 780.59375 1502.148438 778.699219 1501.765625 777.714844 1501.625 C 776.769531 1501.484375 775.328125 1501.0625 774.554688 1500.746094 C 773.785156 1500.394531 772.765625 1500.042969 772.308594 1499.972656 C 770.695312 1499.65625 764.269531 1495.902344 763.953125 1495.09375 C 763.847656 1494.8125 763.460938 1494.566406 763.039062 1494.566406 C 762.652344 1494.566406 761.707031 1494.039062 760.898438 1493.40625 C 760.089844 1492.777344 759.035156 1492.003906 758.546875 1491.6875 C 757.421875 1490.984375 749.453125 1483.085938 749.453125 1482.664062 C 749.453125 1482.523438 749.066406 1481.925781 748.574219 1481.367188 C 745.730469 1478.066406 740.742188 1469.359375 738.671875 1464.019531 C 737.339844 1460.582031 735.371094 1454.894531 735.054688 1453.488281 C 734.878906 1452.820312 734.496094 1451.3125 734.214844 1450.152344 C 732.84375 1445.0625 731.371094 1437.375 730.457031 1430.84375 C 730.246094 1429.296875 730.035156 1427.648438 729.929688 1427.15625 C 728.980469 1421.082031 728.558594 1400.226562 729.226562 1391.871094 C 729.824219 1384.605469 731.019531 1375.757812 732 1371.15625 C 734.074219 1361.710938 738.214844 1349.496094 741.761719 1342.4375 C 745.414062 1335.167969 751.242188 1327.515625 756.191406 1323.40625 C 763.179688 1317.613281 768.410156 1314.664062 775.609375 1312.417969 C 781.296875 1310.664062 783.300781 1310.242188 788.003906 1309.925781 C 790.074219 1309.75 791.9375 1309.609375 792.113281 1309.609375 C 792.324219 1309.574219 793.902344 1309.714844 795.625 1309.890625 Z M 795.625 1309.890625 " fill-opacity="1" fill-rule="nonzero"/><path fill="#000000" d="M 508.0625 1309.925781 C 501.917969 1310.207031 499.28125 1311.121094 495.386719 1314.246094 C 491.875 1317.054688 489.835938 1320.632812 488.75 1325.867188 C 488.222656 1328.429688 488.1875 1339.207031 488.257812 1454.894531 C 488.292969 1524.304688 488.46875 1582.375 488.609375 1583.917969 C 488.785156 1585.464844 489.101562 1587.429688 489.277344 1588.273438 C 489.976562 1591.117188 492.121094 1594.910156 494.367188 1597.367188 C 496.683594 1599.859375 498.476562 1601.019531 502.476562 1602.632812 L 504.902344 1603.582031 L 543.347656 1603.6875 C 577.582031 1603.757812 582.109375 1603.722656 584.605469 1603.230469 C 592.292969 1601.648438 598.4375 1595.609375 600.085938 1587.957031 C 600.261719 1587.289062 600.332031 1528.027344 600.296875 1456.296875 C 600.226562 1340.191406 600.15625 1325.621094 599.667969 1323.757812 C 598.296875 1318.457031 595.03125 1314.210938 590.714844 1312.101562 C 586.042969 1309.785156 587.308594 1309.855469 548.296875 1309.785156 C 528.882812 1309.75 510.765625 1309.820312 508.0625 1309.925781 Z M 508.0625 1309.925781 " fill-opacity="1" fill-rule="nonzero"/><g clip-path="url(#75a87debbf)"><path fill="#000000" d="M 1874.351562 1652.101562 C 1874.773438 1652.171875 1875.40625 1652.171875 1875.753906 1652.101562 C 1876.070312 1651.996094 1875.71875 1651.925781 1874.949219 1651.960938 C 1874.175781 1651.960938 1873.894531 1652.03125 1874.351562 1652.101562 Z M 1874.351562 1652.101562 " fill-opacity="1" fill-rule="nonzero"/></g></svg>