<?xml version="1.0" standalone="no"?>
<!DOCTYPE svg PUBLIC "-//W3C//DTD SVG 20010904//EN"
 "http://www.w3.org/TR/2001/REC-SVG-20010904/DTD/svg10.dtd">
<svg style="background:#F875F7" version="1.0" xmlns="http://www.w3.org/2000/svg"
 width="5696.000000pt" height="3000.000000pt" viewBox="0 0 5696.000000 3000.000000"
 preserveAspectRatio="xMidYMid meet">
<metadata>
Created by potrace 1.16, written by Peter Selinger 2001-2019
</metadata>
<g transform="translate(0.000000,3000.000000) scale(0.100000,-0.100000)"
fill="#F01942" stroke="none">
<path d="M4919 28816 c-2 -2 -67 -6 -144 -10 -150 -6 -192 -12 -323 -46 -255
-66 -516 -237 -682 -445 -42 -53 -140 -208 -140 -222 0 -3 -7 -19 -15 -36 -39
-85 -92 -242 -114 -337 -35 -151 -35 -155 -34 -6465 0 -5831 1 -6206 17 -6300
62 -357 220 -554 501 -628 161 -42 112 -42 4480 -42 4019 0 4172 1 4235 18
183 52 291 150 342 310 28 86 28 259 0 382 -18 82 -128 491 -217 810 -20 72
-45 159 -55 195 -57 208 -78 283 -126 455 -30 105 -61 217 -70 250 -9 33 -23
80 -31 105 -8 25 -18 63 -23 85 -4 22 -20 78 -34 125 -14 47 -36 128 -50 180
-13 52 -39 147 -56 210 -17 63 -35 131 -40 150 -4 19 -20 76 -34 125 -41 143
-45 155 -70 255 -23 88 -66 245 -86 315 -34 118 -54 197 -76 310 -14 72 -33
159 -41 195 -17 69 -17 119 -26 2940 l-3 965 -23 55 c-12 30 -27 70 -32 88
-12 38 -126 164 -181 198 -21 13 -72 35 -113 49 l-76 26 -1297 1 c-1230 1
-1425 -2 -1438 -23 -3 -5 -11 -9 -19 -9 -32 0 -149 -66 -194 -109 -59 -57
-100 -123 -132 -216 l-24 -70 1 -695 c0 -661 5 -841 23 -865 4 -5 13 -34 20
-64 48 -196 214 -304 516 -336 226 -24 391 -162 419 -350 13 -85 17 -503 6
-625 -5 -63 -17 -137 -25 -164 -58 -190 -248 -330 -475 -351 -103 -10 -2037
-6 -2085 4 -126 26 -210 70 -295 154 -82 83 -133 186 -165 340 l-25 115 1
2839 c0 1773 3 2870 9 2923 21 176 52 273 125 385 90 138 201 205 418 254 34
8 711 11 2293 11 2234 0 2245 0 2341 21 108 23 153 44 236 107 104 79 165 199
187 367 7 53 10 348 8 860 -3 768 -4 781 -25 841 -49 140 -110 223 -213 293
-75 49 -160 78 -273 90 -79 9 -6569 15 -6578 7z"/>
<path d="M13450 28810 c-286 -25 -471 -206 -505 -495 -4 -33 -7 -2314 -7
-5069 1 -4558 3 -5017 17 -5095 19 -98 101 -353 145 -448 17 -36 30 -67 30
-70 0 -3 7 -20 15 -39 8 -19 22 -49 30 -68 8 -18 64 -161 125 -317 61 -156
123 -313 139 -349 16 -36 38 -85 49 -110 11 -25 34 -81 52 -125 17 -44 38 -93
45 -110 8 -16 84 -203 169 -415 85 -212 173 -430 196 -485 23 -55 54 -134 70
-175 15 -41 39 -100 53 -130 28 -60 156 -369 192 -465 30 -78 84 -212 123
-300 44 -102 106 -252 130 -315 17 -46 99 -245 147 -355 7 -16 32 -77 55 -135
24 -58 58 -136 75 -175 18 -38 36 -81 40 -95 11 -35 118 -254 154 -315 40 -68
134 -165 203 -209 74 -47 142 -73 224 -86 137 -22 229 -11 352 42 83 35 302
138 502 236 344 167 698 301 1075 408 151 43 499 122 564 129 38 4 147 21 226
35 53 9 148 21 205 25 19 1 80 7 135 13 189 20 268 23 599 23 329 0 446 -7
761 -47 127 -16 443 -74 535 -99 30 -8 136 -35 235 -59 279 -69 697 -216 963
-337 34 -16 65 -29 67 -29 6 0 116 -51 240 -111 95 -46 207 -106 286 -154 31
-19 59 -35 62 -35 8 0 231 -135 287 -174 25 -17 52 -35 61 -41 9 -5 47 -31 85
-56 143 -96 230 -129 343 -129 82 0 125 11 187 50 111 69 193 228 226 440 11
69 13 3537 2 3685 -10 137 -65 284 -140 371 -83 98 -191 151 -349 173 -53 8
-1066 11 -3253 11 -3434 0 -3285 -2 -3419 53 -138 56 -274 176 -330 289 -18
35 -41 99 -53 140 -21 76 -21 88 -23 1835 -2 1896 -5 1780 50 1941 55 158 189
282 382 350 42 15 303 17 3111 19 1686 1 3112 4 3170 6 191 9 348 88 439 221
32 46 85 189 94 251 10 69 8 1525 -2 1606 -26 197 -123 348 -271 416 -162 75
173 67 -3350 73 l-3165 5 -84 29 c-178 62 -285 170 -354 355 -19 53 -21 79
-23 471 -3 457 1 499 56 618 29 61 78 133 110 160 23 19 112 76 140 89 14 6
52 24 85 40 l60 28 585 3 c322 1 1827 3 3345 5 2739 3 2761 3 2826 23 81 25
173 80 228 137 54 54 127 202 145 292 19 92 16 1533 -3 1660 -32 216 -198 403
-396 447 -22 5 -58 13 -80 18 -46 10 -9377 10 -9495 0z"/>
<path d="M24920 28811 c-274 -21 -450 -163 -517 -417 -17 -66 -18 -330 -18
-6284 0 -3418 2 -6469 6 -6780 6 -549 6 -567 28 -640 63 -208 179 -325 381
-383 74 -21 87 -21 860 -22 l785 0 85 23 c111 30 182 71 250 141 66 69 112
157 142 266 18 70 22 114 25 340 2 143 5 2173 6 4510 l2 4250 29 43 c50 73
111 90 176 51 38 -24 43 -30 95 -106 30 -43 365 -703 365 -717 0 -2 60 -127
134 -278 73 -150 143 -295 156 -323 49 -108 117 -251 240 -500 148 -300 350
-715 350 -721 0 -2 52 -110 115 -240 63 -130 115 -237 115 -239 0 -2 72 -151
161 -332 89 -180 175 -357 191 -393 17 -36 70 -148 119 -249 49 -101 89 -186
89 -188 0 -3 68 -143 151 -311 137 -276 211 -429 301 -622 17 -36 62 -129 99
-208 38 -78 69 -145 69 -147 0 -3 44 -94 99 -204 54 -110 103 -212 110 -228 6
-15 15 -35 21 -43 10 -15 170 -349 170 -355 0 -2 41 -87 90 -190 50 -103 90
-188 90 -190 0 -2 137 -284 325 -670 45 -93 100 -206 120 -250 161 -345 310
-645 397 -797 62 -107 168 -235 253 -302 115 -92 242 -144 430 -176 102 -17
184 -18 1166 -19 1021 -1 1208 3 1304 30 123 35 233 96 297 166 52 58 105 158
125 238 17 67 18 353 15 6505 -2 3669 -8 6464 -13 6502 -22 166 -124 323 -252
389 -60 31 -157 58 -239 67 -42 4 -602 7 -1244 6 -1268 -1 -1202 2 -1335 -55
-62 -27 -63 -27 -135 -93 -87 -79 -143 -197 -164 -344 -7 -48 -10 -1014 -11
-2820 0 -1678 -4 -2770 -10 -2807 -17 -110 -101 -155 -197 -106 -21 11 -53 34
-71 53 -35 35 -219 340 -492 812 -50 87 -137 235 -193 330 -56 94 -149 252
-206 351 -57 99 -178 304 -268 455 -91 151 -199 336 -242 410 -43 74 -111 191
-152 260 -41 69 -114 193 -163 275 -48 83 -120 204 -159 270 -39 66 -75 128
-81 137 -10 18 -333 565 -495 838 -175 294 -320 539 -420 710 -57 96 -138 234
-180 305 -43 72 -131 220 -195 330 -65 110 -137 232 -161 271 -135 221 -274
334 -484 395 l-75 22 -1140 2 c-627 1 -1178 -1 -1225 -4z"/>
<path d="M36363 28810 c-193 -20 -354 -125 -431 -283 -34 -68 -49 -119 -63
-217 -7 -42 -8 -2306 -5 -6385 3 -3476 6 -7402 6 -8725 1 -1564 4 -2421 11
-2450 5 -25 14 -67 20 -93 20 -96 74 -194 146 -266 76 -76 140 -110 253 -137
67 -16 149 -18 763 -21 655 -3 692 -3 791 16 179 35 291 89 405 196 63 59 191
221 191 241 0 3 8 18 19 32 10 15 62 111 115 215 104 204 160 308 185 347 9
14 27 45 39 70 13 25 27 52 32 60 5 8 24 47 43 85 40 80 131 256 206 395 28
52 67 127 87 165 33 68 43 85 64 123 6 9 12 23 15 30 13 31 17 40 41 82 24 42
96 178 201 380 53 104 145 278 160 305 6 11 23 43 36 71 14 27 35 68 48 90 22
39 48 88 174 329 37 72 71 135 75 140 5 6 29 51 55 100 83 159 171 328 220
420 51 96 85 161 210 400 95 182 141 270 232 440 38 72 112 211 163 310 51 99
101 191 110 205 9 14 40 71 69 128 28 57 62 120 75 140 12 20 51 96 86 167 35
72 89 175 120 230 31 55 83 152 115 215 32 63 71 138 86 165 16 28 49 91 75
140 25 50 49 95 53 100 4 6 43 78 86 160 43 83 86 162 96 177 11 14 19 28 19
31 0 11 104 174 136 213 128 159 304 288 487 357 l82 31 485 3 c267 2 1007 4
1645 6 1128 3 1162 4 1225 23 212 66 350 182 410 347 16 46 23 72 37 142 3 11
6 398 7 860 3 883 5 925 49 1035 32 82 68 147 113 205 17 22 35 48 40 57 37
68 485 510 723 714 57 49 134 116 170 149 93 85 268 236 300 260 15 11 57 45
92 76 93 81 145 109 206 109 50 0 81 -16 135 -71 16 -16 139 -177 168 -219 8
-12 20 -28 25 -34 22 -24 164 -215 210 -280 26 -38 52 -74 57 -80 17 -21 183
-244 223 -300 22 -31 77 -107 122 -169 45 -62 99 -136 120 -165 21 -29 56 -77
78 -105 22 -28 47 -61 55 -73 8 -12 49 -68 90 -125 123 -171 320 -462 320
-473 0 -3 13 -24 29 -48 38 -57 97 -193 115 -265 25 -101 29 -178 29 -638 -1
-432 0 -453 22 -535 34 -132 83 -213 170 -280 67 -52 195 -97 310 -111 44 -5
494 -9 1000 -9 1003 0 962 -2 1108 60 92 38 162 101 219 198 76 127 73 88 74
1014 1 966 4 932 -91 1158 -43 102 -174 290 -503 722 -86 113 -166 219 -177
234 -11 15 -38 50 -61 78 -22 28 -51 67 -64 86 -21 30 -116 153 -310 403 -25
32 -61 79 -80 106 -19 27 -112 147 -206 267 -94 121 -202 262 -240 314 -133
182 -140 198 -111 250 11 19 29 42 41 50 41 29 152 93 211 121 33 16 83 41
110 57 28 15 66 37 85 47 19 11 37 22 40 26 3 3 30 20 60 38 153 94 481 380
631 553 201 230 431 608 532 874 94 244 182 593 202 799 4 39 13 124 21 190
17 139 19 439 4 617 -22 256 -76 527 -155 778 -22 72 -104 279 -129 330 -49
96 -101 192 -128 235 -17 28 -49 79 -71 115 -23 36 -58 88 -79 115 -21 28 -44
57 -51 66 -135 179 -399 425 -616 574 -289 199 -708 388 -1051 475 -107 27
-263 60 -312 65 -21 2 -41 6 -46 9 -8 5 -75 14 -152 21 -25 2 -76 8 -115 13
-120 16 -217 17 -3110 17 -2667 0 -2825 -1 -2905 -18 -176 -37 -297 -126 -362
-268 -34 -72 -68 -208 -66 -259 0 -14 0 -1437 -1 -3163 -1 -3513 -8 -3200 71
-3279 33 -33 44 -38 86 -38 72 0 123 20 183 72 30 25 83 69 118 97 35 28 96
81 136 118 40 38 114 104 165 148 51 44 97 85 104 90 346 317 339 311 426 384
66 56 163 141 241 213 14 12 63 57 109 98 46 41 122 112 169 156 47 45 106 98
131 119 25 20 81 71 126 113 44 43 105 99 135 126 29 27 86 79 124 115 39 36
99 92 135 125 274 247 334 333 384 546 l26 115 3 690 2 690 23 65 c13 36 32
74 42 85 10 11 25 34 34 50 45 86 157 160 316 211 65 20 2366 20 2480 -1 151
-27 314 -84 379 -132 54 -39 147 -143 174 -192 62 -116 71 -155 71 -301 0
-113 -3 -147 -23 -210 -54 -176 -150 -290 -317 -379 -129 -68 -233 -104 -514
-175 -181 -46 -605 -180 -685 -216 -22 -10 -107 -47 -190 -83 -236 -102 -390
-174 -489 -229 -131 -73 -355 -201 -396 -228 -145 -92 -408 -269 -470 -315
-41 -30 -86 -63 -100 -73 -48 -32 -432 -330 -440 -342 -3 -3 -77 -66 -165
-140 -88 -73 -167 -141 -176 -149 -9 -9 -44 -41 -79 -71 -34 -30 -101 -91
-149 -135 -47 -45 -115 -108 -151 -140 -152 -141 -975 -972 -1069 -1080 -19
-22 -64 -72 -100 -110 -36 -39 -84 -91 -106 -115 -143 -159 -456 -491 -540
-574 -98 -97 -185 -168 -308 -254 -69 -47 -255 -142 -280 -142 -9 0 -37 -7
-63 -16 -25 -8 -83 -20 -128 -25 -47 -5 -842 -9 -1918 -9 l-1837 0 -88 30
c-95 33 -132 55 -204 118 -64 57 -126 182 -139 281 -6 41 -10 257 -10 480 0
378 2 412 21 491 12 47 34 110 49 140 60 117 208 220 345 239 41 6 627 12
1435 15 751 3 1379 7 1396 10 181 28 342 142 409 291 68 150 67 128 63 1040
l-3 820 -23 63 c-43 119 -95 196 -172 255 -45 34 -157 82 -221 94 -19 4 -673
8 -1454 10 -859 2 -1441 7 -1473 13 -195 35 -347 205 -369 410 -15 139 -8 541
11 635 44 213 176 351 381 399 63 15 221 17 1520 20 1097 2 1463 6 1503 15 46
10 106 37 194 88 60 34 134 141 176 256 l27 72 3 790 c2 551 -1 817 -9 878
-18 144 -77 267 -161 341 -65 57 -133 94 -222 119 l-71 21 -2835 1 c-1559 1
-2867 -1 -2907 -5z"/>
<path d="M43885 16747 c-86 -8 -209 -44 -290 -85 -90 -45 -170 -113 -249 -212
-100 -126 -155 -218 -381 -645 -76 -143 -148 -276 -160 -295 -12 -19 -50 -89
-85 -155 -78 -149 -131 -247 -140 -260 -4 -5 -29 -53 -55 -105 -27 -52 -83
-160 -125 -240 -42 -80 -112 -212 -155 -295 -42 -82 -81 -154 -85 -160 -9 -12
-49 -86 -177 -330 -53 -99 -108 -202 -123 -230 -15 -27 -50 -90 -77 -140 -27
-49 -87 -162 -133 -250 -46 -88 -109 -207 -140 -265 -31 -58 -82 -152 -112
-210 -31 -58 -79 -147 -107 -199 -28 -52 -51 -96 -51 -98 0 -3 -8 -17 -18 -31
-11 -15 -43 -72 -72 -127 -29 -55 -56 -104 -60 -110 -4 -5 -33 -58 -64 -117
-31 -59 -66 -125 -78 -145 -33 -60 -208 -394 -208 -400 0 -2 -26 -52 -59 -111
-58 -106 -72 -132 -211 -392 -40 -74 -76 -139 -80 -145 -10 -13 -150 -276
-257 -485 -47 -91 -129 -246 -183 -345 -53 -99 -120 -223 -147 -275 -28 -52
-63 -117 -78 -145 -15 -27 -55 -104 -90 -170 -34 -66 -74 -140 -87 -165 -14
-25 -54 -99 -88 -165 -131 -251 -173 -332 -200 -380 -26 -48 -59 -109 -136
-252 -20 -38 -47 -86 -59 -108 -12 -22 -71 -132 -130 -245 -59 -113 -118 -224
-131 -248 -13 -23 -47 -86 -75 -140 -29 -53 -70 -131 -92 -172 -22 -41 -65
-123 -96 -183 -31 -59 -70 -133 -88 -165 -17 -31 -35 -64 -39 -72 -4 -8 -59
-111 -121 -228 -62 -117 -113 -214 -113 -216 0 -2 -16 -33 -36 -68 -20 -34
-65 -119 -101 -188 -36 -69 -78 -147 -93 -175 -15 -27 -56 -104 -90 -170 -82
-156 -234 -444 -258 -486 -36 -65 -90 -165 -137 -254 -27 -49 -60 -112 -75
-140 -15 -27 -53 -99 -85 -160 -32 -60 -70 -132 -85 -160 -42 -76 -103 -190
-152 -285 -74 -140 -148 -280 -201 -375 -27 -49 -69 -128 -94 -175 -25 -47
-49 -89 -53 -95 -8 -11 -55 -97 -133 -245 -28 -52 -65 -121 -84 -153 -18 -32
-33 -59 -33 -61 0 -5 -204 -386 -307 -576 -50 -91 -155 -282 -233 -425 -181
-329 -250 -470 -279 -565 -12 -41 -26 -87 -30 -101 -4 -14 -9 -56 -10 -95 -4
-153 87 -319 220 -402 67 -41 178 -81 257 -92 54 -8 641 -10 2012 -8 l1935 3
79 30 c124 46 222 111 283 185 51 64 85 131 248 505 32 72 74 166 95 210 20
44 47 103 60 130 48 107 95 207 181 380 110 223 162 284 255 298 100 16 182
-56 198 -173 4 -25 9 -265 11 -535 2 -269 7 -508 10 -530 8 -59 44 -163 73
-215 81 -145 235 -254 392 -279 44 -7 954 -11 2778 -11 3020 0 2773 -6 2912
67 190 101 289 257 310 490 6 68 9 2726 7 7228 l-3 7120 -23 70 c-25 75 -73
161 -118 211 -33 35 -128 114 -138 114 -4 0 -30 12 -59 26 -28 14 -78 31 -111
37 -70 13 -3458 17 -3590 4z m-484 -6683 c11 -9 19 -25 19 -35 0 -10 5 -21 10
-24 22 -14 12 -249 -45 -1015 -8 -107 -17 -238 -20 -290 -14 -209 -18 -233
-51 -277 -61 -81 -149 -102 -425 -103 -205 0 -258 11 -321 68 -47 42 -60 71
-59 129 0 47 7 64 141 338 54 110 124 254 155 320 58 121 107 220 125 253 5 9
66 134 135 277 145 298 177 352 219 371 37 17 91 11 117 -12z"/>
<path d="M49335 16749 c-122 -9 -221 -36 -310 -86 -68 -38 -150 -127 -194
-212 -47 -90 -59 -141 -65 -266 -3 -49 -5 -3270 -5 -7157 -1 -5167 2 -7087 10
-7140 13 -85 47 -182 83 -234 52 -77 145 -161 219 -198 153 -76 19 -70 1671
-74 1457 -2 1481 -2 1560 18 124 31 200 73 284 156 82 82 125 161 142 265 13
82 14 14364 0 14459 -13 97 -52 202 -84 229 -9 7 -16 19 -16 26 0 15 -91 99
-143 132 -51 32 -168 70 -243 78 -76 9 -2790 12 -2909 4z"/>
<path d="M32210 13959 c-127 -22 -220 -55 -280 -98 -110 -80 -175 -212 -186
-379 -3 -48 -7 -1475 -8 -3172 -1 -2940 -2 -3087 -19 -3125 -24 -53 -44 -74
-91 -95 -34 -16 -44 -17 -83 -5 -24 7 -51 19 -60 27 -40 33 -170 233 -248 383
-45 87 -62 118 -116 215 -14 25 -50 90 -79 145 -83 157 -171 317 -195 355 -28
44 -185 331 -260 475 -32 61 -65 121 -73 135 -9 14 -29 50 -45 80 -30 57 -54
100 -142 260 -79 144 -104 189 -145 260 -20 36 -44 79 -52 95 -8 17 -26 50
-40 75 -38 68 -81 147 -123 225 -20 39 -48 90 -62 115 -13 25 -43 79 -64 120
-22 41 -56 102 -75 135 -18 33 -42 76 -51 95 -10 19 -57 106 -105 192 -48 87
-88 160 -88 164 0 3 -8 18 -19 32 -10 15 -40 68 -66 117 -108 201 -173 322
-195 360 -12 22 -42 76 -65 120 -78 147 -117 220 -135 250 -9 17 -39 71 -65
120 -27 50 -55 101 -63 115 -7 14 -29 52 -47 85 -19 33 -45 80 -58 105 -13 25
-39 72 -57 105 -18 33 -45 83 -60 110 -15 28 -38 68 -50 90 -12 22 -72 132
-132 245 -60 113 -113 212 -119 220 -5 8 -13 24 -18 36 -5 11 -30 55 -55 98
-25 43 -46 80 -46 83 0 9 -69 92 -130 157 -106 113 -286 212 -417 231 -128 18
-410 22 -1538 20 -1144 -2 -1267 -3 -1340 -19 -200 -42 -357 -173 -413 -341
-45 -139 -43 169 -42 -5627 0 -3592 3 -5446 10 -5463 6 -14 10 -38 10 -51 0
-40 67 -185 108 -234 54 -64 85 -93 118 -110 16 -8 40 -22 54 -31 38 -24 141
-57 217 -69 45 -7 424 -10 1113 -8 l1045 3 70 24 c155 52 283 157 349 286 74
144 68 -103 72 3013 2 2095 6 2818 15 2860 20 100 90 172 165 172 60 0 156
-133 319 -445 26 -49 50 -94 54 -100 5 -5 54 -100 111 -210 56 -110 106 -204
110 -210 4 -5 30 -53 58 -107 28 -53 90 -167 137 -253 47 -86 85 -158 85 -160
0 -3 61 -115 135 -250 74 -135 143 -262 153 -283 10 -20 43 -82 74 -137 50
-91 110 -202 193 -360 94 -178 130 -245 156 -292 110 -200 141 -257 210 -388
79 -150 206 -386 219 -408 6 -10 37 -69 69 -130 32 -62 68 -130 81 -152 12
-22 44 -80 70 -130 106 -200 180 -336 247 -455 59 -107 166 -304 276 -510 16
-30 33 -59 37 -65 4 -5 40 -73 80 -150 40 -77 82 -156 93 -175 11 -19 60 -111
110 -205 186 -353 240 -437 344 -536 111 -107 326 -209 503 -239 46 -8 467
-10 1415 -7 1495 3 1384 -2 1545 70 148 65 276 239 295 400 9 77 13 11528 4
11627 -13 137 -70 269 -151 346 -79 75 -150 106 -308 133 -67 12 -2185 12
-2250 0z"/>
<path d="M4005 13330 c-288 -32 -461 -177 -522 -437 -17 -73 -18 -145 -18
-1048 0 -914 1 -974 19 -1040 46 -174 133 -289 270 -355 146 -70 146 -70 1059
-70 555 0 831 -4 876 -11 76 -13 167 -52 229 -98 50 -37 115 -132 140 -205 16
-48 17 -292 22 -4146 l5 -4095 27 -68 c74 -184 221 -307 426 -358 73 -18 132
-19 1140 -19 1142 0 1140 0 1260 51 146 62 263 197 308 354 16 56 17 313 18
4100 1 3282 4 4049 14 4090 37 140 126 264 237 330 128 76 -34 69 1855 75
1882 6 1732 0 1879 72 129 62 245 216 276 365 21 98 21 1949 1 2065 -39 216
-178 365 -399 427 l-92 25 -4480 2 c-2464 1 -4511 -2 -4550 -6z"/>
<path d="M18780 12748 c-179 -8 -322 -22 -505 -49 -71 -11 -159 -24 -195 -30
-36 -5 -87 -14 -115 -20 -116 -25 -303 -71 -345 -83 -25 -8 -81 -24 -125 -35
-486 -132 -890 -323 -1344 -633 -54 -37 -243 -183 -306 -237 -220 -187 -277
-243 -434 -423 -157 -180 -183 -213 -236 -288 -21 -30 -51 -73 -67 -95 -114
-163 -276 -415 -317 -495 -19 -36 -51 -95 -72 -131 -54 -93 -161 -320 -193
-409 -15 -41 -39 -104 -53 -140 -47 -120 -140 -413 -176 -555 -55 -217 -110
-459 -122 -535 -3 -19 -14 -91 -25 -160 -20 -127 -22 -142 -41 -310 -24 -222
-29 -272 -39 -395 -35 -419 -32 -1151 5 -1495 3 -25 7 -67 10 -95 3 -27 7 -66
10 -85 2 -19 7 -62 10 -95 9 -105 73 -528 100 -660 8 -38 35 -151 60 -250 25
-99 50 -196 55 -215 9 -36 72 -243 82 -270 4 -8 16 -46 28 -85 12 -38 44 -127
71 -196 27 -70 49 -129 49 -133 0 -19 194 -422 262 -546 23 -41 48 -89 57
-106 9 -16 27 -44 39 -61 12 -17 22 -35 22 -41 0 -5 6 -15 14 -21 7 -6 34 -46
60 -89 26 -42 58 -93 71 -112 13 -19 35 -50 47 -68 13 -17 38 -49 55 -70 18
-20 33 -42 33 -47 0 -6 8 -18 18 -26 9 -9 31 -33 47 -54 17 -21 50 -61 75 -89
25 -28 68 -78 95 -111 61 -72 254 -266 356 -355 161 -143 525 -410 558 -410 6
0 14 -6 18 -12 8 -13 18 -19 133 -80 30 -16 59 -33 65 -38 22 -19 397 -200
413 -200 4 0 25 -9 47 -20 22 -11 45 -20 52 -20 8 0 24 -6 36 -14 40 -26 372
-130 517 -161 41 -9 109 -25 150 -35 92 -23 276 -57 350 -65 30 -3 75 -10 100
-15 45 -9 301 -34 475 -46 97 -7 549 -7 655 0 122 8 509 55 582 71 72 16 176
37 273 57 28 6 79 19 114 29 35 11 69 19 76 19 32 0 463 152 580 204 17 7 41
18 55 24 14 5 60 26 103 47 44 20 99 45 124 56 24 10 93 47 151 81 59 33 127
72 151 86 24 13 75 45 114 71 38 25 77 51 86 56 9 6 20 16 24 22 4 7 13 13 20
13 7 0 24 10 37 23 14 12 44 36 66 52 83 61 157 118 173 134 10 10 27 24 38
32 64 45 367 338 438 424 14 17 55 67 93 112 37 44 105 134 152 199 47 64 95
128 108 141 12 13 22 30 22 37 0 7 9 21 20 31 11 10 20 22 20 27 0 5 21 41 48
80 47 71 74 119 158 278 25 47 49 92 54 100 61 106 270 618 320 785 12 39 32
104 46 145 35 105 140 523 165 655 43 234 78 443 83 500 3 33 10 94 15 135 36
280 48 552 49 1060 2 529 -13 792 -65 1145 -8 61 -17 119 -18 130 -18 123 -88
490 -109 575 -8 30 -22 87 -32 125 -9 39 -34 131 -56 205 -22 74 -43 149 -48
165 -24 89 -154 440 -197 535 -14 30 -34 78 -45 105 -29 75 -170 351 -224 441
-67 112 -231 360 -276 419 -220 288 -399 491 -554 630 -49 44 -93 85 -99 91
-17 18 -147 125 -236 194 -87 67 -400 279 -504 342 -65 39 -323 170 -420 213
-86 38 -407 159 -490 184 -610 184 -1166 256 -1775 229z m315 -2998 c160 -17
189 -21 277 -40 150 -34 255 -78 448 -188 112 -64 317 -248 404 -362 102 -135
209 -324 281 -500 110 -269 203 -634 241 -940 1 -14 6 -50 10 -80 4 -30 7 -58
6 -61 -1 -4 3 -33 8 -65 16 -111 23 -249 24 -490 2 -321 -6 -449 -45 -769 -5
-44 -12 -95 -14 -112 -6 -58 -47 -250 -70 -333 -7 -25 -17 -63 -23 -85 -52
-192 -89 -298 -159 -452 -13 -29 -28 -62 -33 -75 -17 -39 -112 -213 -120 -218
-4 -3 -23 -30 -43 -60 -44 -66 -67 -96 -129 -161 -27 -27 -48 -54 -48 -58 0
-5 -18 -21 -40 -36 -22 -15 -40 -31 -40 -36 0 -5 -26 -28 -57 -51 -32 -24 -62
-49 -66 -55 -4 -7 -14 -13 -22 -13 -8 0 -18 -6 -22 -13 -9 -14 -89 -69 -113
-77 -8 -3 -58 -26 -110 -52 -266 -128 -627 -167 -935 -102 -38 8 -92 19 -120
23 -27 4 -68 16 -90 25 -22 10 -51 20 -64 22 -46 9 -229 116 -238 139 -3 8
-14 15 -26 15 -11 0 -38 15 -61 33 -23 18 -53 40 -67 49 -32 20 -259 245 -259
257 0 4 -11 21 -25 37 -81 94 -223 342 -282 494 -38 98 -94 260 -103 300 -5
19 -16 62 -24 95 -39 145 -81 364 -107 550 -6 44 -12 91 -15 105 -27 173 -39
767 -20 1005 17 207 51 459 79 590 59 269 177 617 278 818 104 207 270 425
411 542 199 165 348 249 553 313 162 50 219 62 353 71 59 5 112 9 117 9 6 1
51 -3 100 -8z"/>
<path d="M10905 9749 c-175 -8 -250 -34 -361 -123 -100 -80 -158 -182 -189
-331 -15 -73 -16 -380 -14 -3675 1 -1977 6 -3631 10 -3675 5 -44 14 -100 19
-124 20 -81 81 -189 145 -259 66 -71 117 -104 231 -150 l69 -27 1095 -3 c975
-2 1104 -1 1175 13 219 45 394 217 441 435 5 19 7 1707 6 3750 -2 3307 -4
3722 -18 3775 -39 151 -132 272 -255 332 -133 66 -97 64 -1208 66 -553 1
-1069 -1 -1146 -4z"/>
<path d="M49818 3 c12 -2 30 -2 40 0 9 3 -1 5 -23 4 -22 0 -30 -2 -17 -4z"/>
</g>
</svg>
