<svg xmlns="http://www.w3.org/2000/svg" xmlns:xlink="http://www.w3.org/1999/xlink" width="3000" zoomAndPan="magnify" viewBox="0 0 2250 2250.000011" height="3000" preserveAspectRatio="xMidYMid meet" version="1.0"><defs><clipPath id="38888be466"><path d="M 0.5 0 L 2249.5 0 L 2249.5 2249 L 0.5 2249 Z M 0.5 0 " clip-rule="nonzero"/></clipPath><clipPath id="1513fac2f7"><path d="M 120.875 596.878906 L 2122.484375 596.878906 L 2122.484375 1652.410156 L 120.875 1652.410156 Z M 120.875 596.878906 " clip-rule="nonzero"/></clipPath></defs><g clip-path="url(#38888be466)"><path fill="#ffffff" d="M 0.5 0 L 2249.5 0 L 2249.5 2249 L 0.5 2249 Z M 0.5 0 " fill-opacity="1" fill-rule="nonzero"/><path fill="#c5f92a" d="M 0.5 0 L 2249.5 0 L 2249.5 2249 L 0.5 2249 Z M 0.5 0 " fill-opacity="1" fill-rule="nonzero"/></g><g clip-path="url(#1513fac2f7)"><path fill="#c5f92a" d="M 120.878906 595.980469 L 2122.484375 595.980469 L 2122.484375 1653.011719 L 120.878906 1653.011719 Z M 120.878906 595.980469 " fill-opacity="1" fill-rule="nonzero"/></g><path fill="#393df4" d="M 291.792969 642.03125 C 288.019531 642.421875 284.425781 642.914062 283.507812 643.195312 C 282.945312 643.371094 281.148438 643.9375 279.527344 644.429688 C 272.9375 646.472656 267.582031 649.785156 262.71875 654.859375 C 255.53125 662.363281 252.113281 668.988281 249.433594 680.71875 L 248.621094 684.242188 L 248.621094 1129.957031 L 249.46875 1132.777344 C 252.183594 1142.007812 257.609375 1147.433594 266.03125 1149.40625 C 268.566406 1150.007812 275.96875 1150.042969 418.828125 1150.042969 C 564.652344 1150.042969 569.019531 1150.007812 571.417969 1149.371094 C 580.4375 1146.941406 583.996094 1141.65625 582.90625 1132.320312 C 582.339844 1127.421875 579.0625 1114.773438 568.316406 1075.519531 C 563.910156 1059.417969 563.207031 1056.882812 562.605469 1054.558594 C 562.359375 1053.570312 561.726562 1051.351562 561.230469 1049.625 C 560.703125 1047.863281 559.753906 1044.375 559.082031 1041.871094 C 558.414062 1039.335938 557.390625 1035.53125 556.792969 1033.417969 C 556.191406 1031.265625 555.101562 1027.144531 554.324219 1024.253906 C 553.585938 1021.332031 552 1015.304688 550.800781 1010.867188 C 548.6875 1002.796875 547.804688 998.886719 546.679688 992.191406 C 546.148438 989.019531 546.078125 982.503906 545.867188 924.542969 C 545.65625 865.417969 545.621094 860.238281 545.058594 858.125 C 542.976562 850.375 539.171875 846.074219 532.441406 843.960938 L 529.832031 843.152344 L 437.507812 843.152344 L 434.6875 844.136719 C 429.859375 845.828125 426.6875 848.472656 424.644531 852.488281 C 422.246094 857.210938 421.859375 862.070312 421.859375 886.488281 C 421.894531 905.269531 422.035156 908.300781 423.375 913.195312 C 424.117188 915.910156 425.453125 918.445312 427.039062 920.207031 C 429.683594 923.132812 432.609375 924.367188 440.644531 925.988281 C 447.691406 927.429688 450.226562 928.453125 453.082031 931.132812 C 455.160156 933.105469 456.921875 936.308594 457.734375 939.585938 C 457.980469 940.609375 458.121094 945.226562 458.15625 951.742188 C 458.191406 963.511719 458.085938 964.355469 455.761719 969.042969 C 454.070312 972.460938 450.6875 976.019531 447.832031 977.324219 C 443.285156 979.472656 443.496094 979.4375 421.472656 979.648438 C 410.335938 979.753906 394.230469 979.859375 385.703125 979.824219 C 371.007812 979.789062 370.023438 979.753906 366.675781 978.980469 C 361.671875 977.886719 359.097656 976.546875 355.925781 973.339844 C 353.988281 971.402344 352.929688 969.996094 352.015625 968.054688 C 350.21875 964.355469 350.007812 963.722656 349.40625 959.953125 C 348.949219 957.027344 348.878906 944.167969 348.878906 857.175781 C 348.878906 748.300781 348.738281 755.171875 350.886719 748.371094 C 352.15625 744.320312 353.636719 741.78125 356.101562 739.246094 C 359.484375 735.898438 363.679688 733.960938 369.53125 733.078125 C 371.292969 732.796875 396.453125 732.691406 449.875 732.691406 C 525.148438 732.65625 527.824219 732.65625 531.03125 731.988281 C 539.171875 730.332031 543.4375 726.417969 545.585938 718.703125 C 546.324219 715.988281 546.359375 715.460938 546.394531 690.585938 C 546.433594 676.632812 546.324219 663.527344 546.148438 661.410156 C 545.445312 651.195312 541.003906 645.167969 532.300781 642.597656 C 530.292969 641.996094 524.265625 641.960938 411.605469 641.925781 C 346.378906 641.925781 292.460938 641.960938 291.792969 642.03125 Z M 291.792969 642.03125 " fill-opacity="1" fill-rule="nonzero"/><path fill="#393df4" d="M 595.378906 642.316406 C 588.015625 643.722656 583.46875 647.566406 581.320312 654.1875 C 579.910156 658.628906 579.945312 653.765625 579.910156 838.359375 L 579.875 1015.445312 L 580.71875 1018.441406 C 581.636719 1021.613281 583.925781 1027.707031 587.449219 1036.234375 C 592.101562 1047.476562 598.585938 1063.292969 601.722656 1071.117188 C 602.425781 1072.84375 603.308594 1074.921875 603.660156 1075.699219 C 603.976562 1076.472656 604.402344 1077.496094 604.542969 1077.988281 C 604.683594 1078.480469 605.175781 1079.644531 605.597656 1080.628906 C 606.023438 1081.582031 606.726562 1083.273438 607.113281 1084.328125 C 607.5 1085.386719 609.371094 1089.898438 611.238281 1094.371094 C 613.140625 1098.8125 615.042969 1103.496094 615.535156 1104.765625 C 615.996094 1106 616.699219 1107.691406 617.085938 1108.535156 C 617.4375 1109.347656 617.757812 1110.121094 617.757812 1110.261719 C 617.757812 1110.402344 618.285156 1111.777344 618.953125 1113.363281 C 619.625 1114.949219 621 1118.261719 621.984375 1120.796875 C 622.972656 1123.300781 624.242188 1126.398438 624.769531 1127.667969 C 625.332031 1128.9375 626.144531 1130.839844 626.566406 1131.894531 C 626.988281 1132.953125 627.660156 1134.46875 628.011719 1135.242188 C 629.140625 1137.710938 636.117188 1154.621094 637.3125 1157.792969 C 637.738281 1158.957031 638.828125 1161.632812 639.746094 1163.710938 C 640.625 1165.792969 641.367188 1167.589844 641.367188 1167.695312 C 641.367188 1168.1875 647.605469 1182.84375 649.296875 1186.332031 C 653.101562 1194.226562 658.667969 1199.054688 666.035156 1200.992188 C 671.917969 1202.503906 676.464844 1201.449219 686.578125 1196.199219 C 702.578125 1187.917969 717.449219 1182.140625 734.398438 1177.628906 C 741.375 1175.761719 756.777344 1172.804688 764.175781 1171.886719 C 764.953125 1171.78125 768.441406 1171.464844 771.929688 1171.113281 C 781.515625 1170.230469 806.921875 1170.300781 815.519531 1171.21875 C 822.355469 1171.921875 832.222656 1173.261719 834.832031 1173.824219 C 835.710938 1174 837.933594 1174.496094 839.765625 1174.882812 C 857.914062 1178.6875 872.714844 1183.691406 891.144531 1192.253906 C 898.863281 1195.847656 905.875 1199.617188 915.179688 1205.183594 C 924.902344 1211.03125 927.476562 1212.230469 931.421875 1212.757812 C 934.523438 1213.21875 939.421875 1211.632812 941.75 1209.480469 C 944.003906 1207.332031 945.132812 1204.832031 946.011719 1199.722656 C 946.46875 1196.902344 946.539062 1189.011719 946.433594 1130.839844 L 946.328125 1065.128906 L 945.519531 1062.308594 C 943.261719 1054.378906 938.542969 1049.765625 931.035156 1048.214844 C 928.675781 1047.757812 915.917969 1047.6875 815.273438 1047.6875 C 741.199219 1047.6875 701.414062 1047.546875 699.96875 1047.332031 C 692.359375 1046.101562 686.578125 1042.226562 683.652344 1036.375 C 680.800781 1030.738281 681.011719 1036.726562 681.046875 967.527344 C 681.046875 919.679688 681.152344 905.410156 681.503906 903.753906 C 682.246094 900.195312 683.652344 896.917969 685.382812 894.769531 C 688.515625 890.894531 691.582031 888.886719 696.867188 887.335938 L 699.6875 886.488281 L 725.0625 886.417969 C 739.015625 886.347656 788.175781 886.242188 834.304688 886.207031 C 892.660156 886.101562 918.667969 885.960938 919.757812 885.679688 C 923.425781 884.796875 924.199219 884.550781 926.382812 883.457031 C 929.167969 882.050781 932.585938 878.421875 933.539062 875.917969 C 934.980469 872.113281 935.019531 871.304688 934.980469 842.269531 C 934.945312 818.699219 934.875 813.871094 934.417969 811.757812 C 932.585938 803.160156 927.933594 798.542969 919.265625 796.78125 C 916.128906 796.148438 912.394531 796.113281 807.308594 796.007812 C 685.699219 795.902344 696.269531 796.148438 690.773438 793.398438 C 686.121094 791.074219 682.5625 786.070312 681.363281 780.1875 C 680.730469 776.875 680.589844 753.902344 681.222656 750.449219 C 683.019531 740.441406 687.425781 735.652344 696.941406 733.324219 C 698.207031 733.007812 727.527344 732.867188 815.097656 732.691406 L 931.5625 732.480469 L 933.855469 731.738281 C 937.449219 730.613281 939.28125 729.660156 941.183594 727.933594 C 943.261719 726.066406 944.460938 724.058594 945.625 720.570312 C 947.246094 715.707031 947.210938 716.132812 947.140625 686.710938 L 947.070312 658.523438 L 946.082031 655.351562 C 943.933594 648.480469 940.445312 644.816406 933.855469 642.597656 C 931.988281 641.996094 926.242188 641.960938 764.882812 641.890625 C 627.449219 641.855469 597.421875 641.925781 595.378906 642.316406 Z M 595.378906 642.316406 " fill-opacity="1" fill-rule="nonzero"/><path fill="#393df4" d="M 996.933594 642.351562 C 992.988281 643.019531 989.957031 644.535156 987.207031 647.246094 C 983.789062 650.628906 982.273438 654.542969 981.816406 661.339844 C 981.464844 666.167969 981.605469 1131.261719 981.957031 1132.953125 C 983.226562 1139.507812 984.707031 1142.605469 987.664062 1145.25 C 989.921875 1147.257812 992.140625 1148.457031 995.347656 1149.40625 C 997.285156 1149.972656 999.929688 1150.042969 1024.914062 1150.148438 C 1055.148438 1150.253906 1055.640625 1150.21875 1060.046875 1148.140625 C 1064.558594 1146.023438 1067.730469 1142.21875 1069.246094 1137.179688 L 1070.019531 1134.539062 L 1070.230469 975.984375 L 1070.40625 817.429688 L 1071.394531 815.597656 C 1072.488281 813.484375 1073.507812 812.671875 1075.445312 812.425781 C 1077.492188 812.144531 1079.148438 812.847656 1080.945312 814.714844 C 1083.796875 817.675781 1084.75 819.367188 1092.222656 835.152344 C 1097.71875 846.710938 1106.140625 864.363281 1108.996094 870.28125 C 1110.40625 873.171875 1113.894531 880.464844 1116.746094 886.488281 C 1122.386719 898.292969 1124.289062 902.273438 1132.78125 919.785156 C 1135.847656 926.09375 1140.394531 935.605469 1142.894531 940.925781 C 1145.433594 946.246094 1149.589844 954.984375 1152.164062 960.304688 C 1154.734375 965.625 1157.308594 971.015625 1157.90625 972.285156 C 1159.386719 975.492188 1166.46875 990.289062 1170.066406 997.652344 C 1188.179688 1035.144531 1197.761719 1055.015625 1203.15625 1066.359375 C 1211.117188 1083.097656 1225.707031 1112.410156 1227.292969 1114.808594 C 1231.136719 1120.65625 1236.140625 1124.53125 1242.660156 1126.714844 L 1245.902344 1127.808594 L 1286.074219 1127.949219 C 1327.796875 1128.054688 1333.753906 1127.914062 1337.347656 1126.679688 C 1344.5 1124.214844 1347.566406 1120.9375 1349.1875 1114.101562 C 1349.855469 1111.355469 1349.855469 1106 1349.785156 885.609375 C 1349.714844 635.621094 1349.925781 657.042969 1347.460938 651.828125 C 1345.207031 647.140625 1341.679688 644.253906 1336.464844 642.773438 L 1333.648438 641.960938 L 1292.628906 641.855469 C 1256.648438 641.785156 1251.222656 641.820312 1248.4375 642.316406 C 1241.390625 643.546875 1236.421875 647.460938 1234.234375 653.519531 C 1232.472656 658.382812 1232.578125 652.53125 1232.367188 758.589844 L 1232.15625 857.246094 L 1231.417969 858.652344 C 1230.359375 860.589844 1229.445312 861.332031 1227.859375 861.542969 C 1225.988281 861.789062 1224.085938 860.769531 1221.902344 858.371094 C 1220.140625 856.433594 1213.691406 845.96875 1201.109375 824.652344 C 1197.304688 818.167969 1188.355469 803.089844 1181.234375 791.179688 C 1174.117188 779.269531 1165.554688 764.824219 1162.207031 759.117188 C 1158.859375 753.410156 1152.902344 743.332031 1148.992188 736.742188 C 1145.082031 730.152344 1140.003906 721.59375 1137.714844 717.714844 C 1135.425781 713.839844 1130.984375 706.371094 1127.847656 701.15625 C 1124.710938 695.90625 1118.617188 685.617188 1114.28125 678.253906 C 1109.945312 670.890625 1104.871094 662.257812 1102.96875 659.050781 C 1097.011719 648.9375 1094.96875 646.613281 1089.894531 644.253906 C 1084.855469 641.890625 1087.074219 641.996094 1041.335938 641.925781 C 1006.800781 641.855469 999.433594 641.925781 996.933594 642.351562 Z M 996.933594 642.351562 " fill-opacity="1" fill-rule="nonzero"/><path fill="#393df4" d="M 1400.601562 642.175781 C 1398.242188 642.527344 1394.894531 643.617188 1393.238281 644.640625 C 1392.636719 644.992188 1391.226562 646.226562 1390.101562 647.316406 C 1387.421875 649.960938 1385.835938 653.203125 1385.097656 657.605469 C 1384.566406 660.671875 1384.53125 686.039062 1384.671875 968.550781 C 1384.78125 1206.945312 1384.921875 1276.675781 1385.238281 1278.292969 C 1386.398438 1283.933594 1390.3125 1289.113281 1395.28125 1291.507812 C 1396.867188 1292.28125 1399.015625 1293.09375 1400.074219 1293.339844 C 1401.519531 1293.65625 1408.425781 1293.761719 1428.089844 1293.796875 C 1452.507812 1293.796875 1454.308594 1293.761719 1456.632812 1293.128906 C 1461.039062 1291.964844 1465.476562 1289.464844 1468.367188 1286.539062 C 1470.515625 1284.355469 1474.535156 1277.90625 1477.953125 1271.070312 C 1479.539062 1267.867188 1480.984375 1265.082031 1481.125 1264.90625 C 1481.265625 1264.695312 1482.535156 1262.402344 1483.871094 1259.796875 C 1488.171875 1251.515625 1506.8125 1215.929688 1507.871094 1213.992188 C 1508.011719 1213.710938 1509.386719 1211.066406 1510.902344 1208.179688 C 1512.417969 1205.253906 1515.90625 1198.59375 1518.652344 1193.378906 C 1521.402344 1188.128906 1524.820312 1181.648438 1526.230469 1178.933594 C 1531.761719 1168.257812 1533.066406 1165.792969 1534.335938 1163.429688 C 1535.074219 1162.058594 1537.296875 1157.792969 1539.269531 1153.917969 C 1541.277344 1150.042969 1543.003906 1146.695312 1543.144531 1146.519531 C 1543.425781 1146.128906 1549.417969 1134.679688 1554.597656 1124.671875 C 1556.289062 1121.359375 1557.804688 1118.507812 1557.945312 1118.332031 C 1558.085938 1118.121094 1559.003906 1116.464844 1559.953125 1114.632812 C 1560.941406 1112.800781 1562.28125 1110.261719 1562.949219 1108.992188 C 1563.65625 1107.726562 1564.921875 1105.363281 1565.769531 1103.707031 C 1566.613281 1102.050781 1568.308594 1098.882812 1569.46875 1096.660156 C 1570.632812 1094.441406 1574.085938 1087.746094 1577.117188 1081.792969 C 1580.148438 1075.804688 1583.917969 1068.617188 1585.46875 1065.761719 C 1587.054688 1062.871094 1588.886719 1059.523438 1589.554688 1058.257812 C 1590.753906 1056.035156 1594.242188 1050.1875 1595.300781 1048.601562 C 1595.582031 1048.179688 1596.429688 1046.945312 1597.132812 1045.855469 C 1598.507812 1043.773438 1602.207031 1039.617188 1604.355469 1037.714844 C 1609.785156 1032.921875 1616.761719 1030.210938 1625.78125 1029.363281 C 1627.71875 1029.1875 1652.953125 1028.941406 1681.8125 1028.835938 C 1710.710938 1028.730469 1735.128906 1028.554688 1736.082031 1028.449219 C 1741.332031 1027.8125 1744.503906 1026.441406 1747.535156 1023.375 C 1749.472656 1021.4375 1751.269531 1018.582031 1751.796875 1016.539062 C 1751.941406 1015.941406 1752.328125 1014.566406 1752.644531 1013.507812 C 1753.136719 1011.816406 1753.207031 1007.730469 1753.171875 981.269531 C 1753.171875 962.804688 1753.3125 950.15625 1753.527344 948.855469 C 1754.371094 943.921875 1755.5 941.453125 1759.023438 936.804688 C 1761.101562 934.089844 1768.539062 926.410156 1773.082031 922.25 C 1774.632812 920.84375 1777.488281 918.128906 1779.425781 916.261719 C 1790.632812 905.480469 1811.105469 888.777344 1813.117188 888.777344 C 1814.066406 888.777344 1816.109375 891.421875 1843.914062 928.242188 C 1848.953125 934.9375 1854.453125 942.230469 1856.144531 944.449219 C 1866.152344 957.59375 1869.851562 963.019531 1871.929688 967.457031 C 1874.785156 973.625 1875.277344 977.851562 1875.417969 998.003906 C 1875.523438 1016.574219 1875.699219 1017.84375 1879.011719 1022.738281 C 1881.234375 1025.980469 1885.109375 1028.519531 1889.726562 1029.75 C 1891.101562 1030.105469 1898.710938 1030.210938 1924.964844 1030.316406 C 1962.144531 1030.457031 1961.296875 1030.492188 1966.195312 1028.132812 C 1969.4375 1026.582031 1972.011719 1024.007812 1973.597656 1020.765625 C 1975.921875 1015.976562 1975.957031 1015.65625 1976.027344 989.375 C 1976.097656 959.601562 1975.921875 954.527344 1974.652344 950.296875 C 1974.160156 948.535156 1973.207031 946.070312 1972.574219 944.730469 C 1970.988281 941.558594 1965.773438 934.441406 1925.210938 880.253906 C 1914.359375 865.734375 1909.636719 859.148438 1909.636719 858.511719 C 1909.636719 858.40625 1912.738281 856.714844 1916.542969 854.777344 C 1927.539062 849.210938 1939.800781 840.578125 1946.285156 833.8125 C 1953.898438 825.886719 1958.65625 819.894531 1962.742188 813.097656 C 1965.5625 808.410156 1968.664062 802.457031 1969.894531 799.285156 C 1970.320312 798.226562 1970.882812 796.851562 1971.128906 796.289062 C 1973.84375 790.230469 1977.015625 777.015625 1978.351562 766.164062 C 1978.988281 760.984375 1979.199219 748.792969 1978.742188 742.558594 C 1977.648438 727.265625 1973.914062 712.253906 1968.308594 700.804688 C 1959.289062 682.375 1944.171875 666.589844 1926.726562 657.394531 C 1910.515625 648.867188 1895.222656 644.324219 1875.984375 642.421875 C 1869.394531 641.75 1671.417969 641.75 1667.648438 642.421875 C 1664.582031 642.949219 1660.492188 644.78125 1658.519531 646.507812 C 1656.792969 647.988281 1654.679688 651.019531 1653.9375 653.132812 C 1652.316406 657.605469 1652.386719 652.957031 1652.386719 771.976562 L 1652.386719 884.199219 L 1653.128906 885.75 C 1653.9375 887.511719 1655.03125 888.390625 1656.757812 888.671875 C 1659.507812 889.097656 1662.007812 887.582031 1669.269531 880.992188 C 1671.488281 878.984375 1675.46875 875.425781 1678.078125 873.136719 C 1680.71875 870.808594 1684.457031 867.496094 1686.394531 865.734375 C 1692.171875 860.519531 1696.261719 856.925781 1701.054688 852.839844 C 1704.542969 849.84375 1708.914062 845.96875 1712.648438 842.621094 C 1717.160156 838.535156 1722.234375 834.023438 1726.53125 830.289062 C 1737.667969 820.636719 1747.535156 811.371094 1747.535156 810.523438 C 1747.535156 810.382812 1747.992188 809.5 1748.59375 808.585938 C 1749.894531 806.507812 1751.234375 802.457031 1751.941406 798.402344 C 1752.363281 795.761719 1752.46875 791.179688 1752.46875 771.097656 C 1752.46875 745.058594 1752.539062 744.28125 1754.371094 740.230469 C 1756.0625 736.601562 1759.761719 733.855469 1764.167969 733.042969 C 1765.4375 732.796875 1781.964844 732.691406 1812.058594 732.761719 L 1858.011719 732.867188 L 1860.757812 733.640625 C 1864.210938 734.628906 1867.878906 736.53125 1869.746094 738.328125 C 1874.398438 742.804688 1876.792969 749.460938 1876.335938 756.652344 C 1876.019531 761.511719 1875.628906 763.378906 1874.222656 766.339844 C 1872.671875 769.582031 1870.871094 771.835938 1868.265625 773.773438 C 1864.105469 776.910156 1861.007812 778.109375 1846.699219 782.019531 C 1835.984375 784.980469 1830.734375 786.707031 1820.65625 790.652344 C 1798.914062 799.179688 1783.230469 807.917969 1764.976562 821.691406 C 1749.191406 833.566406 1739.359375 841.847656 1724.488281 855.625 C 1718.390625 861.261719 1698.269531 881.378906 1693.546875 886.488281 C 1690.976562 889.273438 1683.679688 897.304688 1681.496094 899.738281 C 1670.042969 912.386719 1657.214844 925.847656 1654.328125 928.171875 C 1646.890625 934.230469 1641.570312 936.664062 1633.535156 937.71875 C 1631.175781 938.035156 1614.152344 938.105469 1566.226562 938.035156 L 1502.089844 937.929688 L 1499.273438 937.121094 C 1491.378906 934.902344 1487.253906 930.917969 1485.175781 923.484375 C 1484.683594 921.757812 1484.542969 919.1875 1484.402344 909.636719 C 1484.15625 893.921875 1484.683594 888.992188 1487.148438 883.917969 C 1488.628906 880.886719 1491.730469 877.785156 1494.585938 876.445312 C 1499.34375 874.226562 1496.488281 874.367188 1547.515625 874.332031 C 1573.097656 874.296875 1595.40625 874.121094 1597.0625 873.945312 C 1606.222656 872.996094 1610.769531 870.070312 1613.484375 863.410156 C 1615.421875 858.652344 1615.421875 858.40625 1615.28125 827.929688 C 1615.175781 800.304688 1615.175781 799.777344 1614.398438 797.0625 C 1612.707031 790.898438 1608.972656 787.023438 1602.523438 784.625 C 1600.832031 783.992188 1598.472656 783.957031 1551.425781 783.746094 C 1496.558594 783.535156 1499.765625 783.675781 1494.269531 781.136719 C 1490.886719 779.589844 1488.453125 777.261719 1486.9375 774.125 C 1485.105469 770.355469 1484.648438 768.136719 1484.402344 761.054688 C 1483.835938 743.929688 1487.398438 736.636719 1497.933594 733.5 C 1499.800781 732.9375 1504.171875 732.867188 1551.074219 732.691406 L 1602.171875 732.515625 L 1605.34375 731.527344 C 1609.324219 730.296875 1611.863281 728.78125 1613.800781 726.523438 C 1615.808594 724.164062 1617.007812 721.699219 1617.851562 718.175781 C 1618.523438 715.390625 1618.558594 713.945312 1618.558594 689.175781 C 1618.558594 674.484375 1618.417969 661.800781 1618.207031 660.109375 C 1617.148438 650.734375 1612.390625 644.886719 1604.039062 642.597656 C 1601.960938 642.03125 1595.476562 641.960938 1502.269531 641.925781 C 1447.503906 641.890625 1401.765625 641.996094 1400.601562 642.175781 Z M 1400.601562 642.175781 " fill-opacity="1" fill-rule="nonzero"/><path fill="#393df4" d="M 1667.542969 1066.042969 C 1662.820312 1066.289062 1662.078125 1066.394531 1659.082031 1067.488281 C 1654.21875 1069.214844 1649.25 1072.808594 1646.046875 1076.964844 C 1644.035156 1079.503906 1641.078125 1084.683594 1636 1094.441406 C 1634.378906 1097.578125 1631.703125 1102.546875 1630.082031 1105.539062 C 1628.460938 1108.5 1626.171875 1112.765625 1625.007812 1114.984375 C 1618.03125 1128.265625 1611.792969 1139.964844 1607.105469 1148.632812 C 1604.144531 1154.058594 1599.703125 1162.304688 1597.238281 1166.953125 C 1593.078125 1174.777344 1584.550781 1190.597656 1582.542969 1194.261719 C 1580.886719 1197.21875 1576.023438 1206.382812 1573.804688 1210.644531 C 1572.605469 1212.96875 1571.476562 1215.015625 1571.335938 1215.226562 C 1571.195312 1215.402344 1570.070312 1217.480469 1568.871094 1219.804688 C 1567.636719 1222.132812 1565.382812 1226.324219 1563.832031 1229.144531 C 1562.28125 1231.960938 1560.449219 1235.273438 1559.777344 1236.542969 C 1559.109375 1237.8125 1557.980469 1239.925781 1557.242188 1241.296875 C 1556.535156 1242.636719 1553.753906 1247.886719 1551.074219 1252.925781 C 1548.394531 1257.964844 1545.367188 1263.671875 1544.273438 1265.609375 C 1540.820312 1271.882812 1534.476562 1283.542969 1533.558594 1285.339844 C 1532.75 1286.890625 1530.105469 1291.894531 1525.527344 1300.492188 C 1524.679688 1302.042969 1522.074219 1306.871094 1519.710938 1311.238281 C 1513.828125 1322.089844 1511.007812 1327.339844 1506.847656 1335.375 C 1503.675781 1341.46875 1502.164062 1344.289062 1498.921875 1350.171875 C 1495.324219 1356.65625 1489.195312 1368 1486.304688 1373.605469 C 1481.792969 1382.269531 1475.625 1393.828125 1464.386719 1414.652344 C 1462.410156 1418.316406 1459.097656 1424.515625 1457.054688 1428.394531 C 1452.121094 1437.800781 1450.429688 1441.007812 1450.113281 1441.429688 C 1449.972656 1441.605469 1448.773438 1443.824219 1447.46875 1446.363281 C 1446.132812 1448.863281 1444.6875 1451.542969 1444.226562 1452.246094 C 1443.769531 1452.988281 1443.417969 1453.691406 1443.417969 1453.796875 C 1443.417969 1453.9375 1442.394531 1455.875 1441.164062 1458.132812 C 1439.929688 1460.386719 1438.0625 1463.875 1437.003906 1465.917969 C 1435.136719 1469.476562 1432.105469 1475.042969 1425.480469 1487.234375 C 1423.789062 1490.335938 1421.109375 1495.234375 1419.527344 1498.15625 C 1417.976562 1501.046875 1416.105469 1504.464844 1415.402344 1505.734375 C 1414.734375 1507 1413.746094 1508.796875 1413.253906 1509.785156 C 1412.792969 1510.734375 1412.230469 1511.792969 1412.054688 1512.074219 C 1411.667969 1512.671875 1404.65625 1525.535156 1402.257812 1530.042969 C 1401.378906 1531.699219 1399.898438 1534.449219 1398.945312 1536.210938 C 1397.957031 1537.9375 1396.300781 1541.039062 1395.246094 1543.082031 C 1394.152344 1545.125 1393.167969 1546.921875 1393.027344 1547.132812 C 1392.742188 1547.484375 1391.441406 1549.917969 1387.984375 1556.46875 C 1386.929688 1558.511719 1385.484375 1561.191406 1384.78125 1562.460938 C 1381.679688 1568.027344 1377.167969 1576.871094 1377.167969 1577.363281 C 1377.167969 1577.644531 1376.921875 1578.492188 1376.605469 1579.230469 C 1375.792969 1581.132812 1375.757812 1587.335938 1376.570312 1589.871094 C 1377.976562 1594.453125 1381.359375 1598.292969 1385.800781 1600.371094 C 1390.945312 1602.804688 1385.238281 1602.664062 1461.953125 1602.519531 C 1526.828125 1602.449219 1531.445312 1602.378906 1532.925781 1601.816406 C 1533.808594 1601.5 1534.792969 1601.042969 1535.109375 1600.867188 C 1535.464844 1600.652344 1535.921875 1600.511719 1536.132812 1600.511719 C 1536.730469 1600.511719 1540.679688 1597.589844 1541.949219 1596.214844 C 1543.25 1594.839844 1544.765625 1592.269531 1545.929688 1589.589844 C 1546.386719 1588.535156 1547.058594 1587.019531 1547.375 1586.242188 C 1547.726562 1585.46875 1548.429688 1583.847656 1548.925781 1582.613281 C 1549.769531 1580.640625 1551.425781 1576.976562 1555.726562 1567.746094 C 1556.394531 1566.300781 1557.664062 1563.515625 1558.546875 1561.578125 C 1564.921875 1547.378906 1567.460938 1543.363281 1570.5625 1542.445312 C 1573.417969 1541.566406 1576.550781 1542.269531 1578.28125 1544.171875 C 1580.042969 1546.109375 1580.113281 1547.167969 1580.289062 1567.214844 C 1580.429688 1587.933594 1580.394531 1587.652344 1582.859375 1592.726562 C 1585.257812 1597.589844 1589.097656 1600.652344 1594.59375 1602.0625 C 1596.710938 1602.628906 1603.96875 1602.664062 1693.441406 1602.554688 C 1785.417969 1602.449219 1790.105469 1602.414062 1792.113281 1601.78125 C 1799.335938 1599.632812 1803.777344 1595.015625 1805.925781 1587.441406 C 1806.527344 1585.292969 1806.5625 1575.285156 1806.5625 1334.140625 C 1806.5625 1096.660156 1806.527344 1082.957031 1805.960938 1080.453125 C 1805.082031 1076.683594 1803.742188 1074.253906 1801.308594 1071.820312 C 1798.808594 1069.355469 1795.917969 1067.699219 1792.042969 1066.605469 L 1789.292969 1065.832031 L 1730.621094 1065.832031 C 1698.339844 1065.832031 1669.972656 1065.9375 1667.542969 1066.042969 Z M 1647.808594 1298.0625 C 1648.40625 1298.589844 1649.109375 1299.433594 1649.394531 1300 C 1650.203125 1301.515625 1650.027344 1306.765625 1648.898438 1317.757812 C 1648.722656 1319.484375 1648.230469 1324.242188 1647.808594 1328.328125 C 1647.417969 1332.378906 1647.03125 1336.359375 1646.960938 1337.136719 C 1646.855469 1337.910156 1646.539062 1341.152344 1646.222656 1344.359375 C 1645.058594 1356.269531 1645.023438 1356.410156 1642.484375 1357.925781 C 1641.394531 1358.59375 1640.546875 1358.628906 1631.175781 1358.734375 C 1622.152344 1358.839844 1620.917969 1358.769531 1619.757812 1358.242188 C 1615.949219 1356.445312 1616.375 1352.429688 1621.449219 1341.539062 C 1623.316406 1337.59375 1626.3125 1331.324219 1630.363281 1322.867188 C 1632.160156 1319.097656 1634.699219 1313.777344 1636 1311.0625 C 1639.667969 1303.3125 1642.414062 1298.414062 1643.507812 1297.746094 C 1644.917969 1296.863281 1646.503906 1297.003906 1647.808594 1298.0625 Z M 1647.808594 1298.0625 " fill-opacity="1" fill-rule="nonzero"/><path fill="#393df4" d="M 1856.425781 1065.902344 C 1850.75 1066.21875 1846.242188 1068.085938 1842.644531 1071.644531 C 1839.898438 1074.324219 1838.699219 1076.542969 1837.640625 1080.734375 L 1836.902344 1083.800781 L 1836.761719 1331.5 C 1836.691406 1508.761719 1836.761719 1580.042969 1837.042969 1582.191406 C 1837.890625 1588.78125 1839.511719 1592.691406 1842.964844 1596.320312 C 1844.65625 1598.152344 1845.851562 1599.03125 1848.074219 1600.089844 C 1853.5 1602.769531 1850.539062 1602.628906 1906.605469 1602.628906 C 1954.390625 1602.628906 1956.820312 1602.589844 1959.921875 1601.957031 C 1964.1875 1601.078125 1966.972656 1599.5625 1970.109375 1596.460938 C 1972.117188 1594.453125 1972.785156 1593.5 1973.703125 1591.28125 C 1974.335938 1589.800781 1975.039062 1587.335938 1975.289062 1585.820312 C 1975.921875 1581.699219 1975.921875 1085.984375 1975.253906 1082.390625 C 1973.5625 1073.089844 1969.367188 1068.578125 1960.664062 1066.5 C 1958.300781 1065.9375 1954.25 1065.867188 1908.226562 1065.832031 C 1880.8125 1065.796875 1857.480469 1065.832031 1856.425781 1065.902344 Z M 1856.425781 1065.902344 " fill-opacity="1" fill-rule="nonzero"/><path fill="#393df4" d="M 1252.667969 1163.464844 C 1248.367188 1164.488281 1244.210938 1167.34375 1242.375 1170.476562 C 1241.882812 1171.289062 1241.074219 1173.121094 1240.542969 1174.566406 L 1239.59375 1177.171875 L 1239.488281 1207.472656 C 1239.417969 1224.140625 1239.347656 1273.433594 1239.277344 1317.050781 C 1239.167969 1397.527344 1239.167969 1397.351562 1237.9375 1400.417969 C 1237.441406 1401.648438 1234.941406 1403.199219 1233.390625 1403.199219 C 1231.523438 1403.164062 1229.515625 1402.109375 1227.71875 1400.101562 C 1226.835938 1399.148438 1224.332031 1395.097656 1222.113281 1391.152344 C 1215.910156 1380.050781 1210.519531 1370.433594 1209.25 1368.320312 C 1208.617188 1367.261719 1207.734375 1365.675781 1207.3125 1364.796875 C 1206.890625 1363.914062 1205.761719 1361.871094 1204.847656 1360.214844 C 1200.546875 1352.605469 1188.742188 1331.289062 1184.125 1322.867188 C 1181.339844 1317.722656 1178.207031 1312.015625 1177.183594 1310.183594 C 1176.160156 1308.351562 1172.144531 1300.949219 1168.199219 1293.796875 C 1161.359375 1281.289062 1159.175781 1277.378906 1152.867188 1266.140625 C 1151.28125 1263.320312 1148.5 1258.316406 1146.703125 1255.039062 C 1141.34375 1245.316406 1129.503906 1223.964844 1127.320312 1220.15625 C 1126.191406 1218.21875 1124.710938 1215.507812 1123.972656 1214.167969 C 1119.917969 1206.734375 1115.902344 1199.652344 1114.5625 1197.714844 C 1110.617188 1191.863281 1105.683594 1188.164062 1099.128906 1186.085938 L 1096.484375 1185.277344 L 996.757812 1185.277344 L 994.289062 1186.050781 C 988.757812 1187.8125 984.527344 1192.078125 982.941406 1197.539062 C 981.429688 1202.71875 981.5 1196.65625 981.535156 1396.152344 L 981.605469 1586.242188 L 982.378906 1588.640625 C 984.742188 1595.933594 989.640625 1600.441406 996.933594 1602.0625 C 999.328125 1602.589844 1003.171875 1602.664062 1038.164062 1602.519531 C 1079.324219 1602.414062 1077.246094 1602.484375 1080.980469 1600.792969 C 1084.539062 1599.210938 1087.359375 1596.320312 1089.121094 1592.515625 C 1091.691406 1587.054688 1091.515625 1591.5625 1091.621094 1531.453125 C 1091.691406 1501.714844 1091.726562 1457.390625 1091.726562 1432.972656 C 1091.726562 1394.460938 1091.796875 1388.332031 1092.257812 1386.816406 C 1094.019531 1381.003906 1098.351562 1379.664062 1102.40625 1383.679688 C 1104.519531 1385.757812 1106.808594 1389.496094 1112.34375 1399.851562 C 1113.1875 1401.402344 1115.019531 1404.820312 1116.394531 1407.429688 C 1117.804688 1410.035156 1119.671875 1413.523438 1120.554688 1415.179688 C 1121.433594 1416.835938 1123.902344 1421.417969 1126.085938 1425.398438 C 1128.269531 1429.378906 1130.527344 1433.503906 1131.089844 1434.558594 C 1131.652344 1435.617188 1132.957031 1437.976562 1133.945312 1439.773438 C 1134.964844 1441.535156 1135.777344 1443.085938 1135.777344 1443.15625 C 1135.777344 1443.261719 1136.304688 1444.25 1136.941406 1445.375 C 1137.609375 1446.503906 1139.089844 1449.25 1140.253906 1451.472656 C 1144.023438 1458.695312 1148.109375 1466.304688 1151.8125 1472.964844 C 1157.871094 1483.957031 1166.542969 1500.058594 1170.59375 1507.847656 C 1172.988281 1512.496094 1174.292969 1514.894531 1177.21875 1520.003906 C 1177.746094 1520.953125 1178.558594 1522.433594 1178.980469 1523.242188 C 1179.402344 1524.019531 1181.234375 1527.367188 1182.996094 1530.644531 C 1184.796875 1533.886719 1186.769531 1537.515625 1187.402344 1538.675781 C 1189.410156 1542.445312 1203.050781 1567.675781 1207.558594 1576.023438 C 1212.8125 1585.75 1215.839844 1590.332031 1219.117188 1593.675781 C 1223.101562 1597.695312 1227.222656 1600.125 1232.6875 1601.675781 C 1235.328125 1602.449219 1235.574219 1602.449219 1281.84375 1602.554688 C 1311.832031 1602.628906 1329.558594 1602.519531 1331.707031 1602.308594 C 1337.769531 1601.640625 1341.257812 1600.125 1344.710938 1596.671875 C 1346.96875 1594.382812 1347.953125 1592.550781 1349.046875 1588.675781 L 1349.820312 1585.890625 L 1349.890625 1384.351562 C 1349.925781 1266.457031 1349.820312 1181.789062 1349.644531 1180.34375 C 1348.414062 1170.6875 1343.796875 1165.15625 1335.585938 1163.394531 C 1332.167969 1162.691406 1255.660156 1162.726562 1252.667969 1163.464844 Z M 1252.667969 1163.464844 " fill-opacity="1" fill-rule="nonzero"/><path fill="#393df4" d="M 266.242188 1185.453125 C 258.664062 1185.980469 252.992188 1189.644531 250.207031 1195.847656 C 248.199219 1200.25 248.269531 1198.980469 248.269531 1236.542969 L 248.269531 1271.246094 L 249.257812 1274.136719 C 251.617188 1281.113281 256.058594 1284.953125 263.953125 1286.820312 C 265.925781 1287.316406 270.402344 1287.386719 294.820312 1287.492188 C 326.007812 1287.5625 325.480469 1287.527344 329.851562 1289.640625 C 332.28125 1290.804688 335.699219 1294.257812 337.003906 1296.863281 C 338.414062 1299.71875 339.363281 1303.875 339.574219 1308.066406 C 339.644531 1310.113281 339.789062 1373.214844 339.859375 1448.300781 C 339.964844 1576.273438 340.035156 1585.011719 340.597656 1587.476562 C 341.9375 1593.289062 345.707031 1598.328125 350.359375 1600.511719 C 354.90625 1602.664062 354.480469 1602.628906 395.042969 1602.628906 C 436.027344 1602.628906 435.355469 1602.664062 440.429688 1600.335938 C 444.835938 1598.292969 447.65625 1594.839844 449.171875 1589.589844 C 449.804688 1587.371094 449.839844 1582.894531 450.015625 1446.363281 C 450.191406 1312.894531 450.226562 1305.320312 450.828125 1303.136719 C 451.636719 1300.246094 453.539062 1296.300781 454.984375 1294.574219 C 457.734375 1291.261719 462.457031 1288.6875 467.144531 1287.984375 C 468.730469 1287.738281 489.0625 1287.5625 525.957031 1287.492188 C 586.675781 1287.351562 584.277344 1287.421875 589.210938 1285.554688 C 593.335938 1284.003906 597.210938 1280.128906 598.726562 1276.109375 C 600.171875 1272.234375 600.207031 1271.953125 600.207031 1236.542969 C 600.207031 1199.089844 600.242188 1200.390625 598.199219 1195.882812 C 595.800781 1190.632812 591.890625 1187.460938 585.96875 1185.945312 C 583.925781 1185.417969 570.183594 1185.382812 426.582031 1185.3125 C 340.140625 1185.277344 268.003906 1185.347656 266.242188 1185.453125 Z M 266.242188 1185.453125 " fill-opacity="1" fill-rule="nonzero"/><path fill="#393df4" d="M 783.734375 1205.992188 C 783.628906 1206.066406 780.632812 1206.347656 777.039062 1206.558594 C 770.097656 1207.015625 758.996094 1208.671875 750.960938 1210.46875 C 726.222656 1216.035156 707.335938 1224.773438 686.648438 1240.207031 C 680.765625 1244.609375 678.507812 1246.582031 672.871094 1252.222656 C 663.425781 1261.699219 656.871094 1269.839844 651.058594 1279.210938 C 650.882812 1279.527344 650.28125 1280.445312 649.753906 1281.21875 C 644.503906 1289.078125 636.433594 1305.707031 633.261719 1315.113281 C 632.628906 1316.945312 631.992188 1318.777344 631.851562 1319.167969 C 631.394531 1320.328125 629.457031 1326.355469 628.46875 1329.738281 C 625.71875 1339.25 623.921875 1347.355469 622.515625 1356.515625 C 622.019531 1359.617188 621.492188 1363.035156 621.28125 1364.089844 C 621.105469 1365.148438 620.714844 1368.460938 620.398438 1371.417969 C 618.285156 1392.03125 617.933594 1413.171875 619.378906 1431.742188 C 620.222656 1442.910156 622.761719 1460.773438 624.242188 1466.445312 C 624.523438 1467.398438 624.980469 1469.476562 625.332031 1471.027344 C 625.648438 1472.578125 626.320312 1475.253906 626.777344 1477.015625 C 627.234375 1478.742188 627.695312 1480.574219 627.835938 1481.070312 C 628.257812 1482.832031 630.832031 1491.144531 631.324219 1492.34375 C 631.570312 1493.011719 632.132812 1494.527344 632.558594 1495.691406 C 632.980469 1496.851562 633.472656 1498.121094 633.613281 1498.507812 C 633.789062 1498.898438 634.566406 1500.800781 635.304688 1502.738281 C 640.414062 1515.597656 646.96875 1528.246094 654.125 1538.921875 C 655.816406 1541.460938 663.214844 1551.253906 663.921875 1551.890625 C 664.027344 1551.996094 665.648438 1553.828125 667.515625 1555.941406 C 678.507812 1568.554688 693.875 1580.570312 710.046875 1589.203125 C 723.40625 1596.355469 738.875 1601.78125 754.308594 1604.742188 C 755.472656 1604.953125 757.09375 1605.304688 757.902344 1605.480469 C 760.054688 1605.9375 765.515625 1606.75 771.046875 1607.382812 C 771.929688 1607.488281 773.269531 1607.628906 774.042969 1607.734375 C 780.773438 1608.511719 801.035156 1608.617188 808.402344 1607.949219 C 814.886719 1607.3125 826.550781 1605.621094 832.1875 1604.425781 C 849.210938 1600.902344 868.519531 1593.113281 881.769531 1584.445312 C 883.671875 1583.210938 885.292969 1582.191406 885.402344 1582.191406 C 885.789062 1582.191406 893.71875 1576.449219 898.4375 1572.679688 C 905.980469 1566.722656 918.703125 1553.582031 923.636719 1546.675781 C 924.515625 1545.441406 925.714844 1543.785156 926.3125 1542.976562 C 931.527344 1535.824219 935.019531 1530.078125 939.808594 1520.707031 C 943.335938 1513.835938 944.425781 1511.441406 946.71875 1505.554688 C 947.632812 1503.230469 948.726562 1500.449219 949.183594 1499.390625 C 949.605469 1498.332031 950.242188 1496.570312 950.59375 1495.515625 C 950.945312 1494.457031 951.507812 1492.765625 951.863281 1491.816406 C 955.84375 1480.679688 960.390625 1460.632812 961.90625 1447.417969 C 961.976562 1446.644531 962.292969 1444.109375 962.574219 1441.78125 C 965.042969 1421.171875 965.183594 1398.515625 962.925781 1378.007812 C 962.679688 1375.472656 962.363281 1372.722656 962.257812 1371.84375 C 961.976562 1369.199219 960.671875 1359.792969 960.320312 1357.925781 C 958.558594 1348.480469 957.851562 1345.097656 956.515625 1339.777344 C 955.632812 1336.394531 954.785156 1333.050781 954.644531 1332.378906 C 953.34375 1327.058594 950.066406 1317.300781 947.597656 1311.238281 C 947.246094 1310.359375 946.539062 1308.527344 946.011719 1307.1875 C 944.882812 1304.226562 939.175781 1292.601562 936.675781 1288.160156 C 935.6875 1286.398438 934.699219 1284.601562 934.488281 1284.109375 C 934.242188 1283.617188 933.46875 1282.347656 932.761719 1281.289062 C 932.058594 1280.234375 930.578125 1277.90625 929.414062 1276.179688 C 920.429688 1262.332031 907.8125 1248.980469 893.859375 1238.410156 C 878.597656 1226.921875 859.851562 1217.621094 842.089844 1212.757812 C 829.230469 1209.234375 822.851562 1208.039062 809.988281 1206.734375 C 804.878906 1206.242188 784.085938 1205.605469 783.734375 1205.992188 Z M 801.53125 1311.273438 C 809.105469 1312.296875 816.613281 1315.183594 823.554688 1319.765625 C 830.144531 1324.0625 835.996094 1330.125 840.363281 1337.136719 C 841.878906 1339.566406 842.621094 1341.046875 844.734375 1345.59375 C 846.671875 1349.820312 849.175781 1357.644531 851.183594 1365.746094 C 854.882812 1380.6875 856.152344 1408.589844 854.039062 1428.921875 C 853.753906 1431.8125 853.121094 1436.53125 852.980469 1437.027344 C 852.875 1437.308594 852.59375 1439.140625 852.273438 1441.078125 C 851.992188 1443.015625 851.605469 1445.234375 851.429688 1446.011719 C 851.21875 1446.785156 850.902344 1448.195312 850.691406 1449.179688 C 849.140625 1455.875 845.15625 1467.328125 843.289062 1470.5 C 839.941406 1476.136719 837.367188 1480.011719 836.699219 1480.46875 C 836.453125 1480.609375 836.242188 1480.925781 836.242188 1481.140625 C 836.242188 1481.984375 830.742188 1487.9375 827.078125 1491.039062 C 822.003906 1495.375 815.378906 1498.863281 807.34375 1501.433594 C 800.648438 1503.582031 787.152344 1503.757812 778.414062 1501.855469 C 766.75 1499.285156 757.128906 1493.402344 748.917969 1483.78125 C 741.554688 1475.183594 735.878906 1463.664062 732.988281 1451.472656 C 732.8125 1450.800781 732.460938 1449.25 732.144531 1448.054688 C 731.085938 1443.753906 729.289062 1432.445312 728.9375 1427.6875 C 728.195312 1417.152344 728.019531 1413.628906 728.054688 1406.195312 C 728.089844 1396.824219 728.089844 1396.398438 728.902344 1387.875 C 730.523438 1370.714844 733.09375 1359.332031 738.097656 1347.355469 C 742.574219 1336.644531 749.410156 1327.550781 757.375 1321.703125 C 762.765625 1317.792969 768.652344 1314.761719 773.691406 1313.351562 C 775.242188 1312.929688 776.898438 1312.4375 777.390625 1312.261719 C 778.414062 1311.945312 785.425781 1310.957031 788.316406 1310.746094 C 791.027344 1310.570312 798.570312 1310.851562 801.53125 1311.273438 Z M 801.53125 1311.273438 " fill-opacity="1" fill-rule="nonzero"/><path fill="#393df4" d="M 504.109375 1310.886719 C 498.964844 1311.765625 494.875 1314.621094 492.128906 1319.167969 C 489.800781 1323.078125 489.449219 1324.804688 489.097656 1334.847656 C 488.886719 1340.097656 488.816406 1393.792969 488.851562 1464.15625 L 488.957031 1584.480469 L 489.765625 1587.441406 C 490.789062 1591.316406 492.621094 1594.664062 494.839844 1596.953125 C 497.0625 1599.175781 498.753906 1600.195312 502.382812 1601.464844 L 505.167969 1602.449219 L 542.34375 1602.554688 C 569.546875 1602.664062 580.367188 1602.554688 582.691406 1602.273438 C 591.820312 1601.078125 597.351562 1596.390625 599.644531 1588.003906 C 600.136719 1586.066406 600.207031 1575.074219 600.171875 1457.285156 C 600.136719 1386.535156 600.03125 1328.117188 599.925781 1327.445312 C 599.820312 1326.777344 599.398438 1325.191406 599.007812 1323.921875 C 596.894531 1317.265625 593.441406 1313.847656 586.570312 1311.554688 L 584.101562 1310.710938 L 544.988281 1310.675781 C 523.492188 1310.640625 505.097656 1310.746094 504.109375 1310.886719 Z M 504.109375 1310.886719 " fill-opacity="1" fill-rule="nonzero"/></svg>